<svg width="400" height="164" viewBox="0 0 582 164" fill="none" xmlns="http://www.w3.org/2000/svg">
<path d="M5.708 57.4512V1.82492H45.5205V7.22861H11.8269V27.0951H33.9185V32.4194H11.8269V57.4512H5.708ZM54.2531 10.0099C53.1936 10.0099 52.2665 9.6126 51.4718 8.81793C50.6771 8.02327 50.2798 7.09617 50.2798 6.03662C50.2798 4.9241 50.6771 3.99699 51.4718 3.25531C52.2665 2.46065 53.1936 2.06332 54.2531 2.06332C55.3656 2.06332 56.2927 2.46065 57.0344 3.25531C57.8291 3.99699 58.2264 4.9241 58.2264 6.03662C58.2264 7.09617 57.8291 8.02327 57.0344 8.81793C56.2927 9.6126 55.3656 10.0099 54.2531 10.0099ZM57.1934 17.6387V57.4512H51.3129V17.6387H57.1934ZM67.2216 57.4512V17.6387H73.1021V22.3272C74.6384 20.5259 76.4662 19.175 78.5853 18.2744C80.7044 17.3208 83.0619 16.844 85.6577 16.844C90.1608 16.844 93.8428 18.2744 96.7035 21.1352C99.5643 23.996 100.995 27.7044 100.995 32.2604V57.4512H95.1937V33.4524C95.1937 29.9559 94.1871 27.1746 92.174 25.1085C90.1608 23.0424 87.459 22.0093 84.0684 22.0093C81.6844 22.0093 79.5389 22.5391 77.6317 23.5986C75.7775 24.6582 74.2676 26.168 73.1021 28.1282V57.4512H67.2216ZM141.906 57.4512V53.2395C140.211 54.8288 138.251 56.0473 136.026 56.8949C133.854 57.6896 131.523 58.0869 129.033 58.0869C126.225 58.0869 123.602 57.5572 121.165 56.4976C118.728 55.4381 116.609 54.0077 114.808 52.2064C113.007 50.3522 111.577 48.1537 110.517 45.6108C109.51 43.0678 109.007 40.366 109.007 37.5052C109.007 34.6444 109.51 31.9691 110.517 29.4791C111.577 26.9362 113.007 24.7641 114.808 22.9629C116.609 21.1087 118.728 19.6518 121.165 18.5923C123.655 17.5327 126.304 17.0029 129.112 17.0029C131.39 17.0029 133.615 17.4003 135.787 18.1949C138.012 18.9366 140.025 20.0491 141.827 21.5325V1.82492L147.707 0.473995V57.4512H141.906ZM114.808 37.4257C114.808 39.5978 115.179 41.6374 115.921 43.5446C116.715 45.4518 117.775 47.0941 119.099 48.4715C120.424 49.8489 121.987 50.935 123.788 51.7296C125.589 52.5243 127.523 52.9216 129.589 52.9216C132.079 52.9216 134.383 52.4448 136.502 51.4912C138.674 50.4847 140.449 49.1073 141.827 47.359V27.6514C140.449 25.9561 138.674 24.6317 136.502 23.6781C134.33 22.6715 132.026 22.1682 129.589 22.1682C125.457 22.1682 121.96 23.6251 119.099 26.5389C116.239 29.4526 114.808 33.0816 114.808 37.4257ZM160.648 10.0099C159.588 10.0099 158.661 9.6126 157.866 8.81793C157.072 8.02327 156.674 7.09617 156.674 6.03662C156.674 4.9241 157.072 3.99699 157.866 3.25531C158.661 2.46065 159.588 2.06332 160.648 2.06332C161.76 2.06332 162.687 2.46065 163.429 3.25531C164.224 3.99699 164.621 4.9241 164.621 6.03662C164.621 7.09617 164.224 8.02327 163.429 8.81793C162.687 9.6126 161.76 10.0099 160.648 10.0099ZM163.588 17.6387V57.4512H157.707V17.6387H163.588ZM173.616 57.4512V17.6387H179.497V22.3272C181.033 20.5259 182.861 19.175 184.98 18.2744C187.099 17.3208 189.456 16.844 192.052 16.844C196.555 16.844 200.237 18.2744 203.098 21.1352C205.959 23.996 207.389 27.7044 207.389 32.2604V57.4512H201.588V33.4524C201.588 29.9559 200.582 27.1746 198.569 25.1085C196.555 23.0424 193.854 22.0093 190.463 22.0093C188.079 22.0093 185.933 22.5391 184.026 23.5986C182.172 24.6582 180.662 26.168 179.497 28.1282V57.4512H173.616ZM235.268 57.7691C232.513 57.7691 229.918 57.2393 227.481 56.1797C225.097 55.1202 223.004 53.6898 221.203 51.8886C219.401 50.0344 217.971 47.8623 216.912 45.3724C215.905 42.8824 215.402 40.2071 215.402 37.3463C215.402 34.4855 215.905 31.8101 216.912 29.3202C217.971 26.8303 219.401 24.6847 221.203 22.8834C223.004 21.0292 225.123 19.5724 227.56 18.5128C229.997 17.4533 232.619 16.9235 235.427 16.9235C237.705 16.9235 239.904 17.3473 242.023 18.1949C244.195 18.9896 246.182 20.1286 247.983 21.612V17.6387H253.784V58.4048C253.784 63.4906 252.3 67.3845 249.334 70.0863C246.367 72.8411 242.129 74.2186 236.619 74.2186C233.864 74.2186 231.136 73.8477 228.434 73.106C225.732 72.4173 223.269 71.4108 221.044 70.0863L223.587 65.4773C225.971 66.7487 228.169 67.6758 230.182 68.2586C232.249 68.8413 234.315 69.1327 236.381 69.1327C240.142 69.1327 243.003 68.2321 244.963 66.4309C246.923 64.6296 247.903 61.9808 247.903 58.4843V53.16C246.102 54.6434 244.115 55.7824 241.943 56.5771C239.824 57.3717 237.599 57.7691 235.268 57.7691ZM221.203 37.3463C221.203 39.4654 221.574 41.4785 222.315 43.3857C223.057 45.2399 224.064 46.8557 225.335 48.2331C226.659 49.5576 228.222 50.6171 230.023 51.4118C231.825 52.2064 233.732 52.6038 235.745 52.6038C238.288 52.6038 240.619 52.127 242.738 51.1734C244.857 50.2198 246.579 48.8689 247.903 47.1206V27.5719C246.579 25.8767 244.831 24.5522 242.659 23.5986C240.539 22.645 238.235 22.1682 235.745 22.1682C233.679 22.1682 231.745 22.5656 229.944 23.3602C228.196 24.1019 226.659 25.1615 225.335 26.5389C224.064 27.9163 223.057 29.5321 222.315 31.3863C221.574 33.2405 221.203 35.2272 221.203 37.3463ZM285.791 48.551V22.645H277.209V17.6387H285.791V7.54648L291.592 6.03662V17.6387H303.592V22.645H291.592V47.0411C291.592 49.1602 292.069 50.6966 293.023 51.6502C293.976 52.5508 295.539 53.0011 297.711 53.0011C298.824 53.0011 299.804 52.9216 300.651 52.7627C301.552 52.6038 302.506 52.3389 303.512 51.968V57.1333C302.506 57.5042 301.367 57.7691 300.095 57.928C298.877 58.0869 297.685 58.1664 296.519 58.1664C293.076 58.1664 290.427 57.3452 288.573 55.7029C286.718 54.0606 285.791 51.6767 285.791 48.551ZM309.888 57.4512V1.82492L315.769 0.473995V22.3272C317.305 20.5259 319.133 19.175 321.252 18.2744C323.371 17.3208 325.728 16.844 328.324 16.844C332.827 16.844 336.509 18.2744 339.37 21.1352C342.231 23.996 343.661 27.7044 343.661 32.2604V57.4512H337.86V33.4524C337.86 29.9559 336.854 27.1746 334.841 25.1085C332.827 23.0424 330.126 22.0093 326.735 22.0093C324.351 22.0093 322.205 22.5391 320.298 23.5986C318.444 24.6582 316.934 26.168 315.769 28.1282V57.4512H309.888ZM387.036 53.2395C384.811 54.8818 382.48 56.1268 380.043 56.9744C377.659 57.7691 375.037 58.1664 372.176 58.1664C369.315 58.1664 366.613 57.6366 364.07 56.5771C361.58 55.5175 359.408 54.0606 357.554 52.2064C355.753 50.3522 354.323 48.1802 353.263 45.6902C352.203 43.1473 351.674 40.419 351.674 37.5052C351.674 34.6444 352.177 31.9691 353.184 29.4791C354.243 26.9892 355.647 24.8171 357.395 22.9629C359.143 21.1087 361.21 19.6518 363.594 18.5923C366.031 17.5327 368.6 17.0029 371.302 17.0029C373.951 17.0029 376.414 17.5327 378.692 18.5923C381.023 19.6518 383.01 21.1087 384.652 22.9629C386.347 24.8171 387.672 26.9892 388.625 29.4791C389.632 31.9691 390.135 34.6444 390.135 37.5052V39.3329H357.475C357.899 43.2533 359.514 46.5114 362.322 49.1073C365.13 51.7032 368.494 53.0011 372.414 53.0011C374.48 53.0011 376.494 52.6832 378.454 52.0475C380.414 51.4118 382.056 50.5112 383.381 49.3457L387.036 53.2395ZM371.143 22.1682C367.699 22.1682 364.706 23.3337 362.163 25.6648C359.673 27.9958 358.163 30.989 357.634 34.6444H384.255C383.725 31.1479 382.215 28.2077 379.725 25.8237C377.288 23.3867 374.427 22.1682 371.143 22.1682ZM0.463239 152.915L4.51601 148.704C7.37679 151.723 10.423 154.028 13.6546 155.617C16.9392 157.153 20.3827 157.922 23.9852 157.922C28.3294 157.922 31.9053 156.889 34.7131 154.822C37.5209 152.756 38.9248 150.134 38.9248 146.955C38.9248 144.095 37.9183 141.896 35.9051 140.36C33.945 138.823 30.6869 137.684 26.1308 136.943L18.1047 135.671C12.754 134.823 8.80718 133.261 6.26427 130.983C3.72135 128.652 2.44989 125.526 2.44989 121.606C2.44989 116.997 4.25112 113.262 7.85359 110.401C11.4561 107.54 16.171 106.11 21.9986 106.11C25.8659 106.11 29.7068 106.745 33.5211 108.017C37.3355 109.288 40.8055 111.116 43.9312 113.5L40.4347 118.268C37.415 115.99 34.3423 114.268 31.2166 113.103C28.091 111.937 24.9388 111.354 21.7602 111.354C17.7869 111.354 14.5552 112.282 12.0653 114.136C9.62833 115.937 8.40985 118.268 8.40985 121.129C8.40985 123.725 9.28398 125.711 11.0322 127.089C12.7805 128.466 15.6678 129.473 19.694 130.108L27.6407 131.38C33.6801 132.387 38.0772 134.108 40.832 136.545C43.6398 138.982 45.0437 142.346 45.0437 146.637C45.0437 149.074 44.514 151.326 43.4544 153.392C42.4478 155.405 40.991 157.153 39.0838 158.637C37.2296 160.067 34.978 161.206 32.3292 162.054C29.7333 162.849 26.8725 163.246 23.7468 163.246C19.3497 163.246 15.1115 162.372 11.0322 160.623C7.00595 158.822 3.48295 156.253 0.463239 152.915ZM86.5548 158.239C84.3298 159.882 81.9988 161.127 79.5618 161.974C77.1778 162.769 74.5555 163.166 71.6947 163.166C68.8339 163.166 66.1321 162.637 63.5891 161.577C61.0992 160.518 58.9271 159.061 57.0729 157.206C55.2717 155.352 53.8413 153.18 52.7817 150.69C51.7222 148.147 51.1924 145.419 51.1924 142.505C51.1924 139.644 51.6957 136.969 52.7023 134.479C53.7618 131.989 55.1657 129.817 56.914 127.963C58.6622 126.109 60.7284 124.652 63.1123 123.592C65.5493 122.533 68.1187 122.003 70.8206 122.003C73.4694 122.003 75.9329 122.533 78.2109 123.592C80.5419 124.652 82.5286 126.109 84.1709 127.963C85.8661 129.817 87.1906 131.989 88.1442 134.479C89.1507 136.969 89.654 139.644 89.654 142.505V144.333H56.9935C57.4173 148.253 59.0331 151.511 61.8409 154.107C64.6487 156.703 68.0128 158.001 71.9331 158.001C73.9992 158.001 76.0123 157.683 77.9725 157.048C79.9327 156.412 81.575 155.511 82.8994 154.346L86.5548 158.239ZM70.6616 127.168C67.2181 127.168 64.2249 128.334 61.682 130.665C59.192 132.996 57.6822 135.989 57.1524 139.644H83.7735C83.2438 136.148 81.7339 133.208 79.244 130.824C76.807 128.387 73.9462 127.168 70.6616 127.168ZM97.875 162.451V122.639H103.756V127.327C105.292 125.526 107.12 124.175 109.239 123.274C111.358 122.321 113.715 121.844 116.311 121.844C120.814 121.844 124.496 123.274 127.357 126.135C130.218 128.996 131.648 132.704 131.648 137.26V162.451H125.847V138.452C125.847 134.956 124.841 132.175 122.827 130.108C120.814 128.042 118.112 127.009 114.722 127.009C112.338 127.009 110.192 127.539 108.285 128.599C106.431 129.658 104.921 131.168 103.756 133.128V162.451H97.875ZM144.863 153.551V127.645H136.281V122.639H144.863V112.546L150.664 111.037V122.639H162.664V127.645H150.664V152.041C150.664 154.16 151.141 155.697 152.095 156.65C153.048 157.551 154.611 158.001 156.783 158.001C157.896 158.001 158.876 157.922 159.723 157.763C160.624 157.604 161.577 157.339 162.584 156.968V162.133C161.577 162.504 160.438 162.769 159.167 162.928C157.949 163.087 156.757 163.166 155.591 163.166C152.147 163.166 149.499 162.345 147.644 160.703C145.79 159.061 144.863 156.677 144.863 153.551ZM171.9 115.01C170.841 115.01 169.914 114.613 169.119 113.818C168.324 113.023 167.927 112.096 167.927 111.037C167.927 109.924 168.324 108.997 169.119 108.255C169.914 107.461 170.841 107.063 171.9 107.063C173.013 107.063 173.94 107.461 174.682 108.255C175.476 108.997 175.874 109.924 175.874 111.037C175.874 112.096 175.476 113.023 174.682 113.818C173.94 114.613 173.013 115.01 171.9 115.01ZM174.84 122.639V162.451H168.96V122.639H174.84ZM184.869 162.451V122.639H190.749V127.009C192.233 125.314 193.954 124.043 195.915 123.195C197.875 122.294 200.047 121.844 202.431 121.844C205.186 121.844 207.649 122.506 209.821 123.831C212.046 125.102 213.768 126.85 214.986 129.075C216.629 126.638 218.589 124.837 220.867 123.672C223.198 122.453 225.794 121.844 228.655 121.844C232.946 121.844 236.442 123.274 239.144 126.135C241.899 128.996 243.276 132.704 243.276 137.26V162.451H237.475V138.452C237.475 134.956 236.548 132.175 234.694 130.108C232.84 128.042 230.323 127.009 227.145 127.009C224.973 127.009 222.986 127.566 221.185 128.678C219.384 129.791 217.847 131.406 216.576 133.526C216.682 134.108 216.761 134.718 216.814 135.353C216.92 135.936 216.973 136.572 216.973 137.26V162.451H211.172V138.452C211.172 134.956 210.245 132.175 208.391 130.108C206.536 128.042 204.047 127.009 200.921 127.009C198.802 127.009 196.868 127.513 195.12 128.519C193.425 129.473 191.968 130.903 190.749 132.81V162.451H184.869ZM286.695 158.239C284.47 159.882 282.139 161.127 279.702 161.974C277.318 162.769 274.695 163.166 271.834 163.166C268.974 163.166 266.272 162.637 263.729 161.577C261.239 160.518 259.067 159.061 257.213 157.206C255.411 155.352 253.981 153.18 252.922 150.69C251.862 148.147 251.332 145.419 251.332 142.505C251.332 139.644 251.835 136.969 252.842 134.479C253.902 131.989 255.306 129.817 257.054 127.963C258.802 126.109 260.868 124.652 263.252 123.592C265.689 122.533 268.258 122.003 270.96 122.003C273.609 122.003 276.073 122.533 278.351 123.592C280.682 124.652 282.668 126.109 284.311 127.963C286.006 129.817 287.33 131.989 288.284 134.479C289.291 136.969 289.794 139.644 289.794 142.505V144.333H257.133C257.557 148.253 259.173 151.511 261.981 154.107C264.788 156.703 268.153 158.001 272.073 158.001C274.139 158.001 276.152 157.683 278.112 157.048C280.072 156.412 281.715 155.511 283.039 154.346L286.695 158.239ZM270.801 127.168C267.358 127.168 264.365 128.334 261.822 130.665C259.332 132.996 257.822 135.989 257.292 139.644H283.913C283.384 136.148 281.874 133.208 279.384 130.824C276.947 128.387 274.086 127.168 270.801 127.168ZM298.015 162.451V122.639H303.895V127.327C305.432 125.526 307.259 124.175 309.378 123.274C311.498 122.321 313.855 121.844 316.451 121.844C320.954 121.844 324.636 123.274 327.497 126.135C330.358 128.996 331.788 132.704 331.788 137.26V162.451H325.987V138.452C325.987 134.956 324.98 132.175 322.967 130.108C320.954 128.042 318.252 127.009 314.862 127.009C312.478 127.009 310.332 127.539 308.425 128.599C306.571 129.658 305.061 131.168 303.895 133.128V162.451H298.015ZM345.003 153.551V127.645H336.421V122.639H345.003V112.546L350.804 111.037V122.639H362.803V127.645H350.804V152.041C350.804 154.16 351.281 155.697 352.234 156.65C353.188 157.551 354.751 158.001 356.923 158.001C358.035 158.001 359.015 157.922 359.863 157.763C360.764 157.604 361.717 157.339 362.724 156.968V162.133C361.717 162.504 360.578 162.769 359.307 162.928C358.088 163.087 356.896 163.166 355.731 163.166C352.287 163.166 349.638 162.345 347.784 160.703C345.93 159.061 345.003 156.677 345.003 153.551ZM382.04 152.915L386.093 148.704C388.954 151.723 392 154.028 395.232 155.617C398.516 157.153 401.96 157.922 405.562 157.922C409.906 157.922 413.482 156.889 416.29 154.822C419.098 152.756 420.502 150.134 420.502 146.955C420.502 144.095 419.495 141.896 417.482 140.36C415.522 138.823 412.264 137.684 407.708 136.943L399.682 135.671C394.331 134.823 390.384 133.261 387.841 130.983C385.298 128.652 384.027 125.526 384.027 121.606C384.027 116.997 385.828 113.262 389.431 110.401C393.033 107.54 397.748 106.11 403.576 106.11C407.443 106.11 411.284 106.745 415.098 108.017C418.913 109.288 422.383 111.116 425.508 113.5L422.012 118.268C418.992 115.99 415.919 114.268 412.794 113.103C409.668 111.937 406.516 111.354 403.337 111.354C399.364 111.354 396.132 112.282 393.642 114.136C391.205 115.937 389.987 118.268 389.987 121.129C389.987 123.725 390.861 125.711 392.609 127.089C394.358 128.466 397.245 129.473 401.271 130.108L409.218 131.38C415.257 132.387 419.654 134.108 422.409 136.545C425.217 138.982 426.621 142.346 426.621 146.637C426.621 149.074 426.091 151.326 425.031 153.392C424.025 155.405 422.568 157.153 420.661 158.637C418.807 160.067 416.555 161.206 413.906 162.054C411.31 162.849 408.45 163.246 405.324 163.246C400.927 163.246 396.689 162.372 392.609 160.623C388.583 158.822 385.06 156.253 382.04 152.915ZM453.192 157.842C455.311 157.842 457.351 157.418 459.311 156.571C461.271 155.723 463.099 154.478 464.794 152.836L468.45 156.809C466.331 158.822 463.947 160.385 461.298 161.498C458.649 162.61 455.894 163.166 453.033 163.166C450.226 163.166 447.577 162.637 445.087 161.577C442.597 160.518 440.451 159.061 438.65 157.206C436.849 155.352 435.418 153.154 434.359 150.611C433.299 148.068 432.769 145.366 432.769 142.505C432.769 139.644 433.299 136.969 434.359 134.479C435.418 131.936 436.849 129.738 438.65 127.883C440.451 126.029 442.597 124.572 445.087 123.513C447.577 122.4 450.226 121.844 453.033 121.844C455.894 121.844 458.675 122.4 461.377 123.513C464.132 124.625 466.543 126.162 468.609 128.122L464.874 132.413C463.284 130.771 461.457 129.499 459.391 128.599C457.325 127.698 455.232 127.248 453.113 127.248C451.1 127.248 449.192 127.645 447.391 128.44C445.59 129.234 444.027 130.32 442.703 131.698C441.431 133.075 440.425 134.691 439.683 136.545C438.941 138.399 438.571 140.386 438.571 142.505C438.571 144.677 438.941 146.717 439.683 148.624C440.478 150.478 441.511 152.094 442.782 153.472C444.107 154.796 445.669 155.856 447.471 156.65C449.272 157.445 451.179 157.842 453.192 157.842ZM471.959 142.505C471.959 139.644 472.489 136.943 473.549 134.4C474.608 131.857 476.039 129.658 477.84 127.804C479.694 125.95 481.866 124.493 484.356 123.433C486.846 122.374 489.495 121.844 492.303 121.844C495.11 121.844 497.733 122.374 500.17 123.433C502.66 124.493 504.805 125.95 506.607 127.804C508.461 129.658 509.918 131.857 510.977 134.4C512.037 136.943 512.567 139.644 512.567 142.505C512.567 145.419 512.037 148.147 510.977 150.69C509.918 153.233 508.461 155.432 506.607 157.286C504.805 159.14 502.66 160.597 500.17 161.657C497.733 162.716 495.11 163.246 492.303 163.246C489.495 163.246 486.846 162.716 484.356 161.657C481.866 160.597 479.694 159.14 477.84 157.286C476.039 155.432 474.608 153.233 473.549 150.69C472.489 148.147 471.959 145.419 471.959 142.505ZM492.303 158.001C494.316 158.001 496.196 157.604 497.945 156.809C499.746 156.014 501.282 154.928 502.554 153.551C503.878 152.121 504.911 150.478 505.653 148.624C506.395 146.717 506.765 144.677 506.765 142.505C506.765 140.333 506.395 138.32 505.653 136.466C504.911 134.559 503.878 132.916 502.554 131.539C501.282 130.161 499.746 129.075 497.945 128.281C496.196 127.486 494.316 127.089 492.303 127.089C490.29 127.089 488.382 127.486 486.581 128.281C484.833 129.075 483.296 130.161 481.972 131.539C480.701 132.916 479.668 134.559 478.873 136.466C478.131 138.32 477.76 140.333 477.76 142.505C477.76 144.677 478.131 146.717 478.873 148.624C479.615 150.478 480.621 152.121 481.893 153.551C483.217 154.928 484.78 156.014 486.581 156.809C488.382 157.604 490.29 158.001 492.303 158.001ZM520.737 162.451V122.639H526.618V128.281C527.783 126.215 529.32 124.625 531.227 123.513C533.134 122.347 535.306 121.765 537.743 121.765C538.485 121.765 539.147 121.818 539.73 121.923C540.312 121.976 540.895 122.109 541.478 122.321V127.725C540.789 127.513 540.101 127.354 539.412 127.248C538.723 127.089 538.034 127.009 537.346 127.009C534.909 127.009 532.763 127.725 530.909 129.155C529.055 130.532 527.624 132.545 526.618 135.194V162.451H520.737ZM578.872 158.239C576.647 159.882 574.316 161.127 571.879 161.974C569.495 162.769 566.873 163.166 564.012 163.166C561.151 163.166 558.45 162.637 555.907 161.577C553.417 160.518 551.245 159.061 549.39 157.206C547.589 155.352 546.159 153.18 545.099 150.69C544.04 148.147 543.51 145.419 543.51 142.505C543.51 139.644 544.013 136.969 545.02 134.479C546.079 131.989 547.483 129.817 549.231 127.963C550.98 126.109 553.046 124.652 555.43 123.592C557.867 122.533 560.436 122.003 563.138 122.003C565.787 122.003 568.25 122.533 570.528 123.592C572.859 124.652 574.846 126.109 576.488 127.963C578.184 129.817 579.508 131.989 580.462 134.479C581.468 136.969 581.971 139.644 581.971 142.505V144.333H549.311C549.735 148.253 551.351 151.511 554.158 154.107C556.966 156.703 560.33 158.001 564.251 158.001C566.317 158.001 568.33 157.683 570.29 157.048C572.25 156.412 573.892 155.511 575.217 154.346L578.872 158.239ZM562.979 127.168C559.536 127.168 556.542 128.334 553.999 130.665C551.509 132.996 550 135.989 549.47 139.644H576.091C575.561 136.148 574.051 133.208 571.561 130.824C569.124 128.387 566.264 127.168 562.979 127.168Z" fill="black"/>
</svg>
