<svg width="300" height="193" viewBox="0 0 465 193" fill="none" xmlns="http://www.w3.org/2000/svg">
<path d="M443.784 192.259C440.268 192.259 436.709 191.964 433.127 191.352C402.492 186.125 380.847 159.538 380.825 129.472C380.825 127.734 380.896 125.982 381.041 124.222C379.039 123.311 377.002 121.859 375.233 120.112C374.854 119.738 374.485 119.351 374.133 118.951C373.063 117.732 372.135 116.412 371.431 115.048C373.983 116.376 377.486 117.292 380.43 117.89C378.471 116.385 376.632 114.326 375.233 112.056C374.828 111.4 374.458 110.722 374.133 110.04C373.825 109.393 373.561 108.738 373.341 108.082C376.201 110.181 380.579 111.879 383.655 112.914C387.1 106.164 394.11 101.781 401.823 101.781C402.967 101.781 404.125 101.873 405.286 102.071C415.081 103.743 422.043 112.135 422.263 121.71L422.271 121.714C422.346 123.685 422.474 125.635 422.641 127.566C439.12 126.026 452.167 120.711 460.641 109.939C461.486 111.712 461.891 113.767 461.896 116.064C461.896 118.471 461.451 121.151 460.606 124.064C458.67 130.743 454.182 136.512 448.083 140.93C454.508 139.878 460.228 137.396 464.87 133.155C464.888 133.511 464.892 133.872 464.892 134.228C464.888 139.262 463.422 144.155 460.329 148.503C456.237 154.254 449.887 158.183 442.442 160.181C443.265 160.243 444.083 160.278 444.893 160.278C448.827 160.278 452.607 159.503 456.14 157.783C455.031 162.157 452.624 166.038 448.88 168.973C446.367 170.944 443.445 172.321 440.277 173.153C446.451 180.004 454.34 185.39 464.157 188.844C457.715 191.066 450.847 192.259 443.784 192.259Z" fill="#2D5BB2"/>
<ellipse cx="172.886" cy="83.8968" rx="172.079" ry="82.8758" transform="rotate(-0.150747 172.886 83.8968)" fill="#7DA6DD"/>
<path d="M367.558 110.673C349.735 108.897 323.111 116.455 307.11 114.44C301.886 99.4118 328.522 50.6422 345.319 73.918C369.203 107.014 370.047 110.921 367.558 110.673Z" fill="#7DA6DD"/>
<path d="M76.113 101.362C76.3675 101.362 76.622 101.107 76.8765 100.598C77.131 100.089 77.2583 99.253 77.2583 98.0895V74.6392C77.2583 73.8394 77.1674 73.3667 76.9856 73.2213C76.8038 73.0759 76.1675 73.0032 75.0768 73.0032H71.0957C68.987 73.0032 67.2783 73.2395 65.9694 73.7121C64.6969 74.1484 63.8607 74.5665 63.4608 74.9664L64.5515 69.731V68.6403H96.073V69.731L97.1637 74.9664C96.7638 74.5665 95.9094 74.1484 94.6006 73.7121C93.3281 73.2395 91.6375 73.0032 89.5288 73.0032H85.6022C84.4751 73.0032 83.8207 73.0759 83.6389 73.2213C83.4571 73.3667 83.3662 73.8394 83.3662 74.6392V98.0895C83.3662 99.253 83.4935 100.089 83.748 100.598C84.0025 101.107 84.257 101.362 84.5115 101.362H76.113ZM100.201 101.362C100.456 101.362 100.692 101.107 100.91 100.598C101.165 100.089 101.292 99.253 101.292 98.0895V79.6565C101.292 78.4931 101.165 77.675 100.91 77.2024C100.692 76.6934 100.456 76.4207 100.201 76.3844C101.801 76.3844 103.182 76.2753 104.346 76.0572C105.546 75.8027 106.382 75.5482 106.854 75.2937V78.0204L106.745 78.9475L106.854 79.0566C107.691 78.0023 108.763 77.1115 110.072 76.3844C111.417 75.6572 113.072 75.2937 115.035 75.2937C116.744 75.2937 118.216 75.5482 119.452 76.0572C120.725 76.5298 121.634 77.0206 122.179 77.5296L121.088 82.1106V83.7467C120.616 83.165 119.925 82.5651 119.016 81.947C118.143 81.2926 117.144 80.7472 116.016 80.3109C114.889 79.8746 113.69 79.6565 112.417 79.6565C110.963 79.6565 109.672 80.2382 108.545 81.4016C107.418 82.5651 106.854 84.492 106.854 87.1824V98.0895C106.854 99.253 106.964 100.089 107.182 100.598C107.436 101.107 107.691 101.362 107.945 101.362H100.201ZM126.092 114.668C123.91 114.668 122.183 114.45 120.911 114.014C119.639 113.578 118.82 113.16 118.457 112.76L119.548 107.033V105.397C119.802 106.161 120.22 106.961 120.802 107.797C121.347 108.669 122.056 109.397 122.929 109.978C123.801 110.56 124.783 110.851 125.874 110.851C127.728 110.851 129.182 110.305 130.237 109.215C131.327 108.124 132.345 106.67 133.291 104.852C134.018 103.398 134.472 102.398 134.654 101.852C134.436 101.562 134.09 100.889 133.618 99.8347C133.145 98.7803 132.582 97.5078 131.927 96.0172C131.273 94.4902 130.582 92.8723 129.855 91.1635C129.164 89.4547 128.473 87.8005 127.782 86.2008C127.092 84.6011 126.474 83.1831 125.928 81.947C125.383 80.7109 124.965 79.8201 124.674 79.2748C124.056 78.1113 123.492 77.2569 122.983 76.7116C122.474 76.1662 122.111 75.8754 121.893 75.839H130.782C130.491 75.839 130.291 76.1117 130.182 76.6571C130.109 77.166 130.309 78.0386 130.782 79.2748C131.073 79.9655 131.473 80.9654 131.982 82.2742C132.491 83.5467 133.054 85.001 133.672 86.6371C134.29 88.2368 134.927 89.8728 135.581 91.5453C136.235 93.1813 136.835 94.7083 137.381 96.1262H137.435C138.017 94.6356 138.653 93.0359 139.344 91.3271C140.035 89.6183 140.707 87.9459 141.362 86.3098C142.053 84.6738 142.653 83.2195 143.162 81.947C143.707 80.6745 144.107 79.7474 144.361 79.1657C144.87 78.0023 145.07 77.166 144.961 76.6571C144.852 76.1481 144.652 75.8754 144.361 75.839H152.923C152.705 75.8754 152.36 76.1481 151.887 76.6571C151.451 77.1297 150.942 77.9477 150.36 79.1112C150.033 79.7292 149.524 80.7836 148.833 82.2742C148.179 83.7649 147.415 85.4736 146.543 87.4006C145.67 89.3275 144.779 91.3271 143.87 93.3995C142.962 95.4355 142.107 97.3624 141.307 99.1802C140.507 100.962 139.835 102.434 139.289 103.598C137.617 107.27 135.763 110.033 133.727 111.887C131.691 113.741 129.146 114.668 126.092 114.668ZM169.294 101.362C169.548 101.362 169.803 101.107 170.057 100.598C170.312 100.089 170.439 99.253 170.439 98.0895V71.9125C170.439 70.749 170.312 69.931 170.057 69.4584C169.803 68.9494 169.548 68.6767 169.294 68.6403H177.747C177.711 68.7494 177.838 69.0766 178.129 69.622C178.456 70.1673 179.038 70.9672 179.874 72.0215C180.128 72.3487 180.655 73.0032 181.455 73.9848C182.291 74.9664 183.328 76.1844 184.564 77.6387C185.8 79.0566 187.127 80.62 188.545 82.3288C189.999 84.0012 191.453 85.71 192.908 87.4551C194.398 89.1639 195.816 90.7999 197.162 92.3633H197.271V71.9125C197.271 70.749 197.143 69.931 196.889 69.4584C196.634 68.9494 196.38 68.6767 196.125 68.6403H204.524C204.269 68.6403 204.015 68.8948 203.76 69.4038C203.506 69.9128 203.379 70.7672 203.379 71.967V98.0895C203.379 99.253 203.506 100.089 203.76 100.598C204.015 101.107 204.269 101.362 204.524 101.362H197.38C197.416 101.253 197.271 100.925 196.943 100.38C196.616 99.7983 196.034 98.9985 195.198 97.9805C194.653 97.2897 193.853 96.3262 192.799 95.0901C191.781 93.8176 190.617 92.3815 189.308 90.7818C188 89.1457 186.6 87.4369 185.109 85.6554C183.655 83.8739 182.201 82.0924 180.746 80.3109C179.328 78.5294 177.983 76.8752 176.711 75.3482H176.547V98.0895C176.547 99.253 176.674 100.089 176.929 100.598C177.183 101.107 177.438 101.362 177.692 101.362H169.294ZM223.754 101.907C220.119 101.907 217.265 101.325 215.192 100.162C213.156 98.9985 211.72 97.4169 210.884 95.4173C210.084 93.4176 209.684 91.1635 209.684 88.6549C209.684 86.1099 210.102 83.8376 210.939 81.8379C211.811 79.8383 213.265 78.2568 215.301 77.0933C217.337 75.8936 220.155 75.2937 223.754 75.2937C227.354 75.2937 230.171 75.8936 232.207 77.0933C234.243 78.2568 235.68 79.8383 236.516 81.8379C237.388 83.8376 237.825 86.1099 237.825 88.6549C237.825 91.1635 237.407 93.4176 236.57 95.4173C235.77 97.4169 234.353 98.9985 232.317 100.162C230.281 101.325 227.426 101.907 223.754 101.907ZM223.754 98.035C226.009 98.035 227.754 97.6714 228.99 96.9443C230.226 96.2171 231.08 95.1628 231.553 93.7812C232.026 92.3633 232.262 90.6545 232.262 88.6549C232.262 86.6552 232.007 84.9465 231.498 83.5285C231.026 82.1106 230.171 81.0199 228.935 80.2564C227.736 79.4929 226.009 79.1112 223.754 79.1112C221.537 79.1112 219.81 79.5111 218.574 80.3109C217.337 81.0744 216.465 82.1833 215.956 83.6376C215.483 85.0555 215.247 86.7461 215.247 88.7094C215.247 90.6363 215.483 92.3088 215.956 93.7267C216.428 95.1083 217.283 96.1808 218.519 96.9443C219.755 97.6714 221.5 98.035 223.754 98.035ZM249.259 101.362C249.513 101.362 249.677 101.125 249.75 100.653C249.859 100.144 249.695 99.2893 249.259 98.0895C249.077 97.6169 248.732 96.7807 248.223 95.5809C247.714 94.3811 247.114 92.9995 246.423 91.4362C245.768 89.8365 245.078 88.2368 244.351 86.6371C243.623 85.001 242.951 83.5285 242.333 82.2197C241.715 80.8745 241.224 79.8746 240.86 79.2202C240.242 78.0568 239.679 77.2206 239.17 76.7116C238.661 76.1662 238.297 75.8754 238.079 75.839H246.968C246.641 75.839 246.423 76.0935 246.314 76.6025C246.205 77.1115 246.423 77.9841 246.968 79.2202C247.259 79.8383 247.659 80.7836 248.168 82.0561C248.677 83.2922 249.241 84.7283 249.859 86.3644C250.513 87.9641 251.168 89.6002 251.822 91.2726C252.476 92.945 253.076 94.5084 253.622 95.9626H253.676C254.221 94.472 254.803 92.8905 255.421 91.218C256.039 89.5093 256.639 87.8368 257.221 86.2008C257.839 84.5647 258.384 83.1286 258.857 81.8925C259.33 80.62 259.693 79.6929 259.948 79.1112C260.457 77.9477 260.657 77.1115 260.548 76.6025C260.439 76.0935 260.239 75.839 259.948 75.839H268.673C268.346 75.839 268.128 76.0935 268.019 76.6025C267.91 77.1115 268.128 77.9841 268.673 79.2202C268.964 79.8383 269.346 80.7836 269.819 82.0561C270.328 83.2922 270.873 84.7283 271.455 86.3644C272.073 87.9641 272.691 89.6002 273.309 91.2726C273.927 92.945 274.491 94.5084 275 95.9626H275.054C275.672 94.472 276.327 92.8905 277.017 91.218C277.708 89.5093 278.399 87.8368 279.09 86.2008C279.78 84.5647 280.38 83.1286 280.889 81.8925C281.435 80.62 281.835 79.6929 282.089 79.1112C282.598 77.9477 282.798 77.1115 282.689 76.6025C282.58 76.0935 282.38 75.839 282.089 75.839H290.651C290.433 75.839 290.088 76.0935 289.615 76.6025C289.179 77.0752 288.67 77.8932 288.088 79.0566C287.761 79.6747 287.288 80.62 286.67 81.8925C286.052 83.165 285.361 84.6011 284.598 86.2008C283.834 87.7641 283.089 89.3275 282.362 90.8908C281.635 92.4542 280.998 93.8903 280.453 95.1991C279.908 96.4716 279.544 97.4351 279.362 98.0895C279.035 99.2893 278.908 100.144 278.981 100.653C279.053 101.125 279.181 101.362 279.362 101.362H270.637C270.891 101.362 271.055 101.125 271.128 100.653C271.237 100.144 271.073 99.2893 270.637 98.0895C270.528 97.7623 270.255 97.017 269.819 95.8536C269.382 94.6901 268.855 93.2904 268.237 91.6543C267.619 89.9819 266.983 88.2549 266.328 86.4735C265.674 84.692 265.038 83.0014 264.42 81.4016H264.256C263.674 82.9286 263.038 84.5647 262.347 86.3098C261.657 88.0186 261.002 89.6911 260.384 91.3271C259.766 92.9268 259.239 94.3448 258.802 95.5809C258.366 96.7807 258.094 97.6169 257.984 98.0895C257.657 99.2893 257.53 100.144 257.603 100.653C257.675 101.125 257.803 101.362 257.984 101.362H249.259ZM298.17 90.9999C297.952 90.9999 297.715 90.6 297.461 89.8001C297.243 88.9639 297.006 87.8914 296.752 86.5825C296.534 85.2737 296.316 83.8376 296.098 82.2742C295.879 80.7109 295.679 79.1839 295.498 77.6932C295.352 76.1662 295.225 74.8028 295.116 73.6031C295.043 72.3669 295.007 71.4398 295.007 70.8217C295.007 69.7674 295.17 69.0584 295.498 68.6949C295.825 68.2949 296.752 68.095 298.279 68.095C299.297 68.095 300.024 68.1859 300.46 68.3676C300.897 68.5131 301.169 68.7858 301.278 69.1857C301.388 69.5856 301.442 70.1491 301.442 70.8763C301.442 71.458 301.388 72.3487 301.278 73.5485C301.206 74.7483 301.078 76.1117 300.897 77.6387C300.715 79.1657 300.515 80.7109 300.297 82.2742C300.079 83.8012 299.842 85.2373 299.588 86.5825C299.333 87.8914 299.079 88.9639 298.824 89.8001C298.606 90.6 298.388 90.9999 298.17 90.9999ZM299.424 101.907C298.37 101.907 297.552 101.616 296.97 101.034C296.388 100.416 296.098 99.7074 296.098 98.9076C296.098 98.0714 296.37 97.3624 296.916 96.7807C297.497 96.199 298.334 95.9081 299.424 95.9081C300.515 95.9081 301.333 96.199 301.878 96.7807C302.46 97.3624 302.751 98.0714 302.751 98.9076C302.751 99.7074 302.46 100.416 301.878 101.034C301.297 101.616 300.479 101.907 299.424 101.907Z" fill="white"/>
</svg>
