<?xml version="1.0" encoding="UTF-8" standalone="no"?>
<svg
   xmlns:dc="http://purl.org/dc/elements/1.1/"
   xmlns:cc="http://creativecommons.org/ns#"
   xmlns:rdf="http://www.w3.org/1999/02/22-rdf-syntax-ns#"
   xmlns:svg="http://www.w3.org/2000/svg"
   xmlns="http://www.w3.org/2000/svg"
   xmlns:sodipodi="http://sodipodi.sourceforge.net/DTD/sodipodi-0.dtd"
   xmlns:inkscape="http://www.inkscape.org/namespaces/inkscape"
   version="1.1"
   id="svg2"
   xml:space="preserve"
   width="666.66669"
   height="496.81332"
   viewBox="0 0 666.66669 496.81332"
   sodipodi:docname="3040066.eps"><metadata
     id="metadata8"><rdf:RDF><cc:Work
         rdf:about=""><dc:format>image/svg+xml</dc:format><dc:type
           rdf:resource="http://purl.org/dc/dcmitype/StillImage" /></cc:Work></rdf:RDF></metadata><defs
     id="defs6" /><sodipodi:namedview
     pagecolor="#ffffff"
     bordercolor="#666666"
     borderopacity="1"
     objecttolerance="10"
     gridtolerance="10"
     guidetolerance="10"
     inkscape:pageopacity="0"
     inkscape:pageshadow="2"
     inkscape:window-width="640"
     inkscape:window-height="480"
     id="namedview4" /><g
     id="g10"
     inkscape:groupmode="layer"
     inkscape:label="ink_ext_XXXXXX"
     transform="matrix(1.3333333,0,0,-1.3333333,0,496.81333)"><g
       id="g12"
       transform="scale(0.1)"><path
         d="m 0,449.129 h 5000 v 2.5 H 0 Z"
         style="fill:#e7e8e5;fill-opacity:1;fill-rule:nonzero;stroke:none"
         id="path14" /><path
         d="m 3288.78,369.691 h 331.219 v 2.5 H 3288.78 Z"
         style="fill:#e7e8e5;fill-opacity:1;fill-rule:nonzero;stroke:none"
         id="path16" /><path
         d="m 4409.19,368.441 h -411.4 v 2.5 h 411.4 v -2.5"
         style="fill:#e7e8e5;fill-opacity:1;fill-rule:nonzero;stroke:none"
         id="path18" /><path
         d="m 3567.62,303.121 h 191.918 v 2.5 H 3567.62 Z"
         style="fill:#e7e8e5;fill-opacity:1;fill-rule:nonzero;stroke:none"
         id="path20" /><path
         d="M 2256.67,322.012 H 1740 v 2.5 h 516.67 v -2.5"
         style="fill:#e7e8e5;fill-opacity:1;fill-rule:nonzero;stroke:none"
         id="path22" /><path
         d="m 1650.97,322.012 h -343.89 v 2.5 h 343.89 v -2.5"
         style="fill:#e7e8e5;fill-opacity:1;fill-rule:nonzero;stroke:none"
         id="path24" /><path
         d="M 1101.25,364.23 H 632.875 v 2.5 h 468.375 v -2.5"
         style="fill:#e7e8e5;fill-opacity:1;fill-rule:nonzero;stroke:none"
         id="path26" /><path
         d="m 439.148,3723.59 c -30.093,0 -54.578,-24.48 -54.578,-54.57 V 954.699 c 0,-30.097 24.485,-54.578 54.578,-54.578 H 2370.14 c 30.08,0 54.57,24.481 54.57,54.578 V 3669.02 c 0,30.09 -24.49,54.57 -54.57,54.57 z M 2370.14,897.621 H 439.148 c -31.472,0 -57.078,25.598 -57.078,57.078 V 3669.02 c 0,31.46 25.606,57.07 57.078,57.07 H 2370.14 c 31.46,0 57.07,-25.61 57.07,-57.07 V 954.699 c 0,-31.48 -25.61,-57.078 -57.07,-57.078"
         style="fill:#e7e8e5;fill-opacity:1;fill-rule:nonzero;stroke:none"
         id="path28" /><path
         d="m 2602.12,3723.59 c -30.09,0 -54.57,-24.48 -54.57,-54.57 V 954.699 c 0,-30.097 24.48,-54.578 54.57,-54.578 h 1930.99 c 30.09,0 54.58,24.481 54.58,54.578 V 3669.02 c 0,30.09 -24.49,54.57 -54.58,54.57 H 2602.12 M 4533.11,897.621 H 2602.12 c -31.47,0 -57.07,25.598 -57.07,57.078 V 3669.02 c 0,31.46 25.6,57.07 57.07,57.07 h 1930.99 c 31.47,0 57.08,-25.61 57.08,-57.07 V 954.699 c 0,-31.48 -25.61,-57.078 -57.08,-57.078"
         style="fill:#e7e8e5;fill-opacity:1;fill-rule:nonzero;stroke:none"
         id="path30" /><path
         d="m 778.457,1390.2 h 1356.99 V 3421.23 H 778.457 Z"
         style="fill:#e2e2e0;fill-opacity:1;fill-rule:nonzero;stroke:none"
         id="path32" /><path
         d="m 808.613,1390.2 h 1357 v 2031.03 h -1357 z"
         style="fill:#f3f2f1;fill-opacity:1;fill-rule:nonzero;stroke:none"
         id="path34" /><path
         d="m 862.742,1451 h 1248.74 V 3360.43 H 862.742 Z"
         style="fill:#ffffff;fill-opacity:1;fill-rule:nonzero;stroke:none"
         id="path36" /><path
         d="m 2088.68,1451 h 22.8008 V 3360.43 H 2088.68 Z"
         style="fill:#e2e2e0;fill-opacity:1;fill-rule:nonzero;stroke:none"
         id="path38" /><path
         d="m 831,2683.51 h 1312.21 v 81.6289 H 831 Z"
         style="fill:#f3f2f1;fill-opacity:1;fill-rule:nonzero;stroke:none"
         id="path40" /><path
         d="M 2224.61,3521.87 H 719.453 c -4.586,0 -8.336,-3.76 -8.336,-8.33 0,-4.59 3.75,-8.34 8.336,-8.34 H 2224.61 c 4.59,0 8.34,3.75 8.34,8.34 0,4.57 -3.75,8.33 -8.34,8.33"
         style="fill:#e2e2e0;fill-opacity:1;fill-rule:nonzero;stroke:none"
         id="path42" /><path
         d="m 2274.61,3513.54 c 0,-23.02 -18.65,-41.67 -41.66,-41.67 -23.01,0 -41.67,18.65 -41.67,41.67 0,23.01 18.66,41.66 41.67,41.66 23.01,0 41.66,-18.65 41.66,-41.66"
         style="fill:#e2e2e0;fill-opacity:1;fill-rule:nonzero;stroke:none"
         id="path44" /><path
         d="m 789.707,3466.87 v 0 c -6.187,0 -11.25,5.06 -11.25,11.25 v 24.17 c 0,6.18 5.063,11.25 11.25,11.25 6.191,0 11.25,-5.07 11.25,-11.25 v -24.17 c 0,-6.19 -5.059,-11.25 -11.25,-11.25"
         style="fill:#e2e2e0;fill-opacity:1;fill-rule:nonzero;stroke:none"
         id="path46" /><path
         d="m 2098.94,3466.87 c -6.19,0 -11.25,5.06 -11.25,11.25 v 24.17 c 0,6.18 5.06,11.25 11.25,11.25 6.19,0 11.25,-5.07 11.25,-11.25 v -24.17 c 0,-6.19 -5.06,-11.25 -11.25,-11.25"
         style="fill:#e2e2e0;fill-opacity:1;fill-rule:nonzero;stroke:none"
         id="path48" /><path
         d="m 2221.95,1598.95 h -56.34 v 1822.28 h -643.65 c 6.62,13.18 10.33,27.4 11.27,42.12 v 0 0 c -22.38,-16.52 -48.67,-24.8 -77.39,-26.47 28.83,16.62 51.21,39.87 62.81,68.32 h 569.43 c -0.26,-0.93 -0.39,-1.91 -0.39,-2.91 v -24.17 c 0,-6.19 5.06,-11.25 11.25,-11.25 6.19,0 11.25,5.06 11.25,11.25 v 24.17 c 0,1 -0.13,1.98 -0.39,2.91 h 82.32 c 3.13,-15.43 14.78,-27.76 29.83,-31.87 V 1598.95 M 1172.84,3421.23 H 831 v 83.97 h 333.68 c -0.29,-5.23 -0.44,-10.45 -0.44,-15.65 0,-23.3 2.96,-46.23 8.6,-68.32"
         style="fill:#ececea;fill-opacity:1;fill-rule:nonzero;stroke:none"
         id="path50" /><path
         d="m 2165.61,1598.95 h -54.13 v 1084.56 h 31.73 v 81.63 h -31.73 v 595.29 h -665.66 c 23.86,7.33 44.76,19.83 60.42,37.59 6.38,7.25 11.61,15.03 15.72,23.21 h 613.49 30.16 V 1598.95 m -1302.868,0 H 831 v 1084.56 h 31.742 V 1598.95 m 0,1166.19 H 831 v 14.85 c 2.801,2.96 5.34,6.14 7.578,9.54 7.293,11.12 10.742,23.39 10.742,35.9 0,1.79 -0.07,3.59 -0.207,5.38 -5.437,-5.36 -11.508,-9.76 -18.113,-13.28 v 9.64 c 9.898,10.53 17.277,22.65 21.309,36.03 2.304,7.64 3.41,15.28 3.402,22.81 -0.008,9.69 -1.852,19.19 -5.324,28.28 -5.133,-9.27 -11.664,-17.37 -19.387,-24.38 v 531.32 h 341.84 c 5.41,-21.18 13.28,-41.59 23.39,-60.8 H 862.742 v -595.29"
         style="fill:#e6e6e4;fill-opacity:1;fill-rule:nonzero;stroke:none"
         id="path52" /><path
         d="M 2088.68,1598.95 H 862.742 v 1084.56 h 368.898 c 57.33,-95.12 161.51,-156.16 275.91,-156.16 16.22,0 32.64,1.22 49.17,3.75 55.42,8.49 105.37,30.61 146.94,62.43 v 0 0 c -53.36,0.92 -100.47,14.36 -141.6,37.71 14.08,9.16 26.06,20.6 35.11,34.26 3.85,5.82 7.05,11.84 9.61,18.01 h 481.9 V 1598.95 m -577.98,433.29 c 39.92,-56.07 103.73,-87 169.11,-87 35.77,0 72.02,9.26 105.07,28.74 31.06,18.31 55.6,43.45 72.83,72.39 v 0 0 c -23.22,-8.83 -46.05,-12.87 -68.31,-12.87 -8.51,0 -16.93,0.59 -25.27,1.73 6.17,8.8 10.65,18.41 12.78,28.68 0.97,4.68 1.44,9.32 1.45,13.89 0,10.41 -2.45,20.45 -6.98,29.75 -6.35,-14.35 -16.56,-25.99 -29.57,-35.32 13.09,18.79 20.66,39.63 20.65,60.54 0,2.36 -0.1,4.73 -0.29,7.09 -1.56,18.78 -9.17,35.17 -21.23,48.34 -2.67,-20.6 -11.81,-39.05 -25.77,-55.38 2.47,9.99 3.75,19.98 3.75,29.74 -0.01,13.81 -2.6,27.17 -8.08,39.46 -7.95,17.86 -17.88,30.19 -29.99,35.65 v 0 0 c 0.06,-1.58 0.09,-3.17 0.09,-4.75 -0.04,-43.31 -21.4,-82.96 -58.3,-120.55 -4.53,4.5 -9,9.15 -13.4,13.95 l -0.02,-0.01 c -12.98,14.66 -31.52,22.66 -50.46,22.66 -11.62,0 -23.38,-3 -34.12,-9.33 -21.29,-12.55 -33.15,-34.98 -33.17,-58.03 -0.01,-5.11 0.57,-10.26 1.76,-15.33 -9.96,-3.95 -24.61,-8.99 -36.28,-9.8 v 0 0 c 10.31,-6.26 23.82,-9.61 35.85,-9.61 1.02,0 2.03,0.02 3.03,0.07 -8.71,-4.78 -19.55,-9.97 -28.86,-12.07 v 0 0 c 7.91,-3.28 17.22,-4.88 26.21,-4.88 6.17,0 12.2,0.75 17.52,2.25 m 577.98,732.9 h -476.13 c 2.84,5.98 5.26,12.15 7.21,18.5 3.78,12.36 5.61,24.73 5.62,36.93 0.01,15.43 -2.87,30.59 -8.35,45.1 -15.74,-28.17 -39.56,-49.5 -69.11,-65.01 21.38,29.79 33.73,63.12 33.75,96.91 0,1.81 -0.03,3.62 -0.1,5.43 -1.17,30.37 -8.38,53.9 -22.69,68.78 -23.81,-66.12 -78.69,-113.1 -156.39,-147.24 -3.95,9.11 -7.7,18.4 -11.27,27.87 l -0.05,-0.01 c -14.8,41.31 -54.25,69.32 -98.41,69.32 -5.27,0 -10.6,-0.4 -15.97,-1.22 -46.4,-7.11 -81,-43.66 -87.7,-87.75 -16.65,0.05 -40.71,1.23 -58.03,6.8 v 0 0 c 12.17,-16.17 31.69,-29.73 50.36,-36.24 -9.29,-1.12 -19.78,-2.01 -29.85,-2.01 -6.49,0 -12.81,0.37 -18.52,1.28 v 0 0 c 16.08,-15.7 40.63,-26.84 61.61,-29.1 0.68,-2.8 1.39,-5.57 2.14,-8.34 H 862.742 v 595.29 h 333.488 c 34.3,-65.23 94.31,-116.74 170.86,-138.18 25.05,-7.02 50.25,-10.36 75.05,-10.36 21.23,0 42.15,2.45 62.41,7.15 v 0 0 c -41.55,19.69 -73.56,47.1 -97.54,80.04 14.22,2.21 27.65,6.8 39.55,14.26 17.79,11.18 30.14,27.12 37,45.82 v 0 0 c -12.19,-4.43 -24.75,-6.48 -37.55,-6.48 -7.91,-0.01 -15.91,0.78 -23.97,2.28 8.18,1.29 16.13,3.11 23.78,5.47 h 665.66 -22.8 v -595.29"
         style="fill:#ececea;fill-opacity:1;fill-rule:nonzero;stroke:none"
         id="path54" /><path
         d="m 2111.48,1598.95 h -22.8 v 1084.56 h 22.8 V 1598.95 m 0,1166.19 h -22.8 v 595.29 h 22.8 v -595.29"
         style="fill:#dddedb;fill-opacity:1;fill-rule:nonzero;stroke:none"
         id="path56" /><path
         d="m 2143.21,2683.51 h -536.43 c 5.34,12.87 7.91,26.37 7.9,40.08 -0.01,2.69 -0.11,5.39 -0.31,8.09 -17.36,-16.96 -38.71,-27.85 -62.75,-33.81 26.94,17.77 48.24,40.63 60.93,67.27 h 476.13 22.8 31.73 v -81.63 m -911.57,0 H 862.742 831 v 25.67 c 27.637,6.84 52.691,19.26 74.121,35.81 v 0 0 c -27.308,0.35 -51.949,6.07 -74.121,16.1 v 4.05 h 31.742 334.058 c 7.93,-29.24 19.76,-56.61 34.84,-81.63"
         style="fill:#e6e6e4;fill-opacity:1;fill-rule:nonzero;stroke:none"
         id="path58" /><path
         d="m 2192.12,3505.2 h -82.32 c -1.29,4.78 -5.68,8.34 -10.86,8.34 h 92.34 c 0,-2.86 0.29,-5.65 0.84,-8.34 m -104.04,0 h -569.43 c 0,0.01 0.01,0.02 0.01,0.03 1.15,2.81 2.19,5.58 3.14,8.31 h 577.14 c -5.18,0 -9.57,-3.56 -10.86,-8.34 m -923.4,0 H 831 v 8.34 h 334.28 c -0.24,-2.79 -0.44,-5.56 -0.6,-8.34 m 190.38,2.04 c -1.59,0 -3.18,0.01 -4.78,0.03 0.03,2.08 0.08,4.17 0.14,6.27 h 71.96 c -20.87,-4.3 -43.36,-6.3 -67.32,-6.3"
         style="fill:#dddedb;fill-opacity:1;fill-rule:nonzero;stroke:none"
         id="path60" /><path
         d="m 2221.95,3473.33 c -15.05,4.11 -26.7,16.44 -29.83,31.87 -0.55,2.69 -0.84,5.48 -0.84,8.34 h 30.67 v -40.21"
         style="fill:#dddedb;fill-opacity:1;fill-rule:nonzero;stroke:none"
         id="path62" /><path
         d="m 2098.94,3466.87 c -6.19,0 -11.25,5.06 -11.25,11.25 v 24.17 c 0,1 0.13,1.98 0.39,2.91 1.29,4.78 5.68,8.34 10.86,8.34 v 0 c 5.18,0 9.57,-3.56 10.86,-8.34 0.26,-0.93 0.39,-1.91 0.39,-2.91 v -24.17 c 0,-6.19 -5.06,-11.25 -11.25,-11.25"
         style="fill:#dddedb;fill-opacity:1;fill-rule:nonzero;stroke:none"
         id="path64" /><path
         d="m 965.387,3513.54 c 0,-23.02 -18.657,-41.67 -41.672,-41.67 -23.008,0 -41.664,18.65 -41.664,41.67 0,23.01 18.656,41.66 41.664,41.66 23.015,0 41.672,-18.65 41.672,-41.66"
         style="fill:#e2e2e0;fill-opacity:1;fill-rule:nonzero;stroke:none"
         id="path66" /><path
         d="M 983.73,490.512 H 715.891 V 1084.37 H 983.73 V 490.512"
         style="fill:#ededeb;fill-opacity:1;fill-rule:nonzero;stroke:none"
         id="path68" /><path
         d="M 2088.22,490.512 H 767.313 V 452.879 H 2088.22 v 37.633"
         style="fill:#ededeb;fill-opacity:1;fill-rule:nonzero;stroke:none"
         id="path70" /><path
         d="M 983.73,490.512 H 2139.65 V 1084.37 H 983.73 V 490.512"
         style="fill:#f3f2f1;fill-opacity:1;fill-rule:nonzero;stroke:none"
         id="path72" /><path
         d="m 1089.04,816.512 h 945.3 v 194.758 h -945.3 V 816.512"
         style="fill:#ededeb;fill-opacity:1;fill-rule:nonzero;stroke:none"
         id="path74" /><path
         d="m 1089.04,563.609 h 945.3 v 194.762 h -945.3 V 563.609"
         style="fill:#ededeb;fill-opacity:1;fill-rule:nonzero;stroke:none"
         id="path76" /><path
         d="m 1682.13,900.539 h -240.88 c -6.49,0 -11.81,5.313 -11.81,11.793 v 3.117 c 0,6.492 5.32,11.789 11.81,11.789 h 240.88 c 6.49,0 11.81,-5.297 11.81,-11.789 v -3.117 c 0,-6.48 -5.32,-11.793 -11.81,-11.793"
         style="fill:#f3f2f1;fill-opacity:1;fill-rule:nonzero;stroke:none"
         id="path78" /><path
         d="m 1682.13,647.641 h -240.88 c -6.49,0 -11.81,5.308 -11.81,11.789 v 3.121 c 0,6.488 5.32,11.801 11.81,11.801 h 240.88 c 6.49,0 11.81,-5.313 11.81,-11.801 v -3.121 c 0,-6.481 -5.32,-11.789 -11.81,-11.789"
         style="fill:#f3f2f1;fill-opacity:1;fill-rule:nonzero;stroke:none"
         id="path80" /><path
         d="m 1620.88,1184.36 c 0,0 3.22,-99.99 126.65,-99.99 123.43,0 126.65,99.99 126.65,99.99 h -253.3"
         style="fill:#ededeb;fill-opacity:1;fill-rule:nonzero;stroke:none"
         id="path82" /><path
         d="m 1332.15,1184.36 c 0,0 3.22,-99.99 126.65,-99.99 123.43,0 126.65,99.99 126.65,99.99 h -253.3"
         style="fill:#ededeb;fill-opacity:1;fill-rule:nonzero;stroke:none"
         id="path84" /><path
         d="m 1620.88,1250.61 c 0,0 3.22,-99.99 126.65,-99.99 123.43,0 126.65,99.99 126.65,99.99 h -253.3"
         style="fill:#ededeb;fill-opacity:1;fill-rule:nonzero;stroke:none"
         id="path86" /><path
         d="m 1332.15,1250.61 c 0,0 3.22,-99.99 126.65,-99.99 123.43,0 126.65,99.99 126.65,99.99 h -253.3"
         style="fill:#ededeb;fill-opacity:1;fill-rule:nonzero;stroke:none"
         id="path88" /><path
         d="m 1043.41,1184.36 c 0,0 3.23,-99.99 126.65,-99.99 123.44,0 126.65,99.99 126.65,99.99 h -253.3"
         style="fill:#ededeb;fill-opacity:1;fill-rule:nonzero;stroke:none"
         id="path90" /><path
         d="m 1043.41,1250.61 c 0,0 3.23,-99.99 126.65,-99.99 123.44,0 126.65,99.99 126.65,99.99 h -253.3"
         style="fill:#ededeb;fill-opacity:1;fill-rule:nonzero;stroke:none"
         id="path92" /><path
         d="m 2855.43,451.629 h 434.172 v 2718.43 H 2855.43 Z"
         style="fill:#e2e2e0;fill-opacity:1;fill-rule:nonzero;stroke:none"
         id="path94" /><path
         d="m 3289.6,451.629 h 763.75 v 2718.43 H 3289.6 Z"
         style="fill:#f3f2f1;fill-opacity:1;fill-rule:nonzero;stroke:none"
         id="path96" /><path
         d="m 3329.6,451.629 h 683.75 v 2678.43 H 3329.6 Z"
         style="fill:#e2e2e0;fill-opacity:1;fill-rule:nonzero;stroke:none"
         id="path98" /><path
         d="m 3329.6,451.629 h 172.637 v 2678.43 H 3329.6 Z"
         style="fill:#dadbd8;fill-opacity:1;fill-rule:nonzero;stroke:none"
         id="path100" /><path
         d="m 3329.6,929.02 h 705.41 v 40 H 3329.6 Z"
         style="fill:#f3f2f1;fill-opacity:1;fill-rule:nonzero;stroke:none"
         id="path102" /><path
         d="m 3329.6,1490.24 h 705.41 v 40 H 3329.6 Z"
         style="fill:#f3f2f1;fill-opacity:1;fill-rule:nonzero;stroke:none"
         id="path104" /><path
         d="m 3329.6,2051.46 h 705.41 v 40 H 3329.6 Z"
         style="fill:#f3f2f1;fill-opacity:1;fill-rule:nonzero;stroke:none"
         id="path106" /><path
         d="m 3329.6,2612.68 h 705.41 v 40 H 3329.6 Z"
         style="fill:#f3f2f1;fill-opacity:1;fill-rule:nonzero;stroke:none"
         id="path108" /><path
         d="m 3372.72,1134.37 c 0,0 2.21,-166.94 86.91,-166.94 84.7,0 86.91,166.94 86.91,166.94 h -173.82"
         style="fill:#ededeb;fill-opacity:1;fill-rule:nonzero;stroke:none"
         id="path110" /><path
         d="m 3561.05,1134.37 c 0,0 2.21,-166.94 86.91,-166.94 84.7,0 86.91,166.94 86.91,166.94 h -173.82"
         style="fill:#ededeb;fill-opacity:1;fill-rule:nonzero;stroke:none"
         id="path112" /><path
         d="m 3749.38,1134.37 c 0,0 2.2,-166.94 86.9,-166.94 84.71,0 86.92,166.94 86.92,166.94 h -173.82"
         style="fill:#ededeb;fill-opacity:1;fill-rule:nonzero;stroke:none"
         id="path114" /><path
         d="m 3415.92,2274.65 c 0,0 5.9,-183.19 232.04,-183.19 226.14,0 232.04,183.19 232.04,183.19 h -464.08"
         style="fill:#ededeb;fill-opacity:1;fill-rule:nonzero;stroke:none"
         id="path116" /><path
         d="m 3415.92,2396.03 c 0,0 5.9,-183.19 232.04,-183.19 226.14,0 232.04,183.19 232.04,183.19 h -464.08"
         style="fill:#ededeb;fill-opacity:1;fill-rule:nonzero;stroke:none"
         id="path118" /><path
         d="m 3449.81,1530.24 h 443.332 v 443.332 H 3449.81 Z"
         style="fill:#fafaf9;fill-opacity:1;fill-rule:nonzero;stroke:none"
         id="path120" /><path
         d="m 3575.35,1838.95 h 192.238 v 71.2891 H 3575.35 Z"
         style="fill:#ededeb;fill-opacity:1;fill-rule:nonzero;stroke:none"
         id="path122" /><path
         d="m 3329.6,1530.24 h 120.207 v 443.332 H 3329.6 Z"
         style="fill:#e7e8e5;fill-opacity:1;fill-rule:nonzero;stroke:none"
         id="path124" /><path
         d="m 3449.81,452.68 h 443.332 V 853.391 H 3449.81 Z"
         style="fill:#fafaf9;fill-opacity:1;fill-rule:nonzero;stroke:none"
         id="path126" /><path
         d="m 3575.35,725.738 h 192.238 v 71.3008 H 3575.35 Z"
         style="fill:#ededeb;fill-opacity:1;fill-rule:nonzero;stroke:none"
         id="path128" /><path
         d="m 3329.6,853.391 h 120.2 V 452.68 h -120.2 v 400.711"
         style="fill:#e7e8e5;fill-opacity:1;fill-rule:nonzero;stroke:none"
         id="path130" /><path
         d="m 3513.33,2652.68 h 310 v 381.27 h -310 z"
         style="fill:#fafaf9;fill-opacity:1;fill-rule:nonzero;stroke:none"
         id="path132" /><path
         d="m 3857.92,3033.95 h -62.5 c -8.52,0 -15.42,-6.9 -15.42,-15.41 v -350.45 c 0,-8.51 6.9,-15.41 15.42,-15.41 h 62.5 c 8.51,0 15.41,6.9 15.41,15.41 v 350.45 c 0,8.51 -6.9,15.41 -15.41,15.41"
         style="fill:#ededeb;fill-opacity:1;fill-rule:nonzero;stroke:none"
         id="path134" /><path
         d="m 3408.97,2652.68 h 310 v 381.27 h -310 z"
         style="fill:#fafaf9;fill-opacity:1;fill-rule:nonzero;stroke:none"
         id="path136" /><path
         d="m 3753.55,3033.95 h -62.5 c -8.51,0 -15.41,-6.9 -15.41,-15.41 v -350.45 c 0,-8.51 6.9,-15.41 15.41,-15.41 h 62.5 c 8.52,0 15.42,6.9 15.42,15.41 v 350.45 c 0,8.51 -6.9,15.41 -15.42,15.41"
         style="fill:#ededeb;fill-opacity:1;fill-rule:nonzero;stroke:none"
         id="path138" /><path
         d="m 3329.6,3033.95 h 267.51 l -21.28,-381.27 H 3329.6 v 381.27"
         style="fill:#fafaf9;fill-opacity:1;fill-rule:nonzero;stroke:none"
         id="path140" /><path
         d="m 3631.69,3033.95 h -62.5 c -8.51,0 -15.8,-6.9 -16.27,-15.41 l -19.56,-350.45 c -0.47,-8.51 6.04,-15.41 14.56,-15.41 h 62.5 c 8.52,0 15.8,6.9 16.27,15.41 l 19.56,350.45 c 0.47,8.51 -6.04,15.41 -14.56,15.41"
         style="fill:#ededeb;fill-opacity:1;fill-rule:nonzero;stroke:none"
         id="path142" /><path
         d="M 4438.89,113.238 C 4438.89,50.6992 3570.83,0 2500,0 1429.18,0 561.109,50.6992 561.109,113.238 c 0,62.532 868.071,113.231 1938.891,113.231 1070.83,0 1938.89,-50.699 1938.89,-113.231"
         style="fill:#f3f2f1;fill-opacity:1;fill-rule:nonzero;stroke:none"
         id="path144" /><path
         d="m 3103.97,293 -72.54,20.441 28.02,173.45 L 3132,466.449 3103.97,293"
         style="fill:#f9a8b3;fill-opacity:1;fill-rule:nonzero;stroke:none"
         id="path146" /><path
         d="m 3714.62,190.199 h -75.38 l -18.77,174.551 h 75.38 l 18.77,-174.551"
         style="fill:#f9a8b3;fill-opacity:1;fill-rule:nonzero;stroke:none"
         id="path148" /><path
         d="m 3633.05,198.93 h 91.89 c 3.08,0 5.75,-2.141 6.42,-5.149 l 14.89,-67 c 1.54,-6.949 -3.92,-13.531 -11.04,-13.41 -29.56,0.508 -51.14,2.25 -88.38,2.25 -22.91,0 -92,-2.383 -123.64,-2.383 -30.94,0 -35.77,31.282 -22.81,34.114 58.07,12.707 101.84,30.226 120.43,46.937 3.35,3.02 7.73,4.641 12.24,4.641"
         style="fill:#17282f;fill-opacity:1;fill-rule:nonzero;stroke:none"
         id="path150" /><path
         d="m 3034.3,321.691 79.23,-22.312 c 2.97,-0.84 4.96,-3.617 4.78,-6.699 l -3.83,-68.532 c -0.4,-7.097 -7.26,-12.007 -14.07,-9.957 -28.45,8.539 -69.28,21.848 -105.2,31.969 -42.01,11.828 -41.84,12.93 -91.09,26.809 -29.79,8.39 -29.57,40.832 -16.34,40.051 60.26,-3.579 69.89,-8.481 127.45,7.949 6.25,1.781 12.81,2.492 19.07,0.722"
         style="fill:#17282f;fill-opacity:1;fill-rule:nonzero;stroke:none"
         id="path152" /><path
         d="m 3541.94,2500.53 c -25.47,-42.19 -52.06,-82.4 -80.21,-122.32 -28.23,-39.75 -57.43,-78.94 -89.15,-116.96 l -5.91,-7.15 -2.38,-2.81 -3.1,-3.5 c -2.12,-2.3 -4.55,-4.53 -6.9,-6.7 -9.78,-8.65 -21.97,-15.28 -33.86,-18.94 -24.33,-7.22 -44.61,-4.32 -61.02,-0.58 -32.85,8.28 -56.17,22.85 -78.57,37.32 -43.81,30.17 -79.33,64.37 -112.67,102.99 l 38.53,41.45 c 18.84,-12.49 38.71,-25.66 58.42,-37.25 19.7,-11.8 39.49,-22.99 59.12,-32.02 19.17,-9.22 39.52,-16.27 53.83,-17.75 7,-0.81 11.57,0.76 10.15,1.3 -0.53,0.17 -2.09,-0.39 -3.02,-0.92 l -0.59,-0.28 -0.21,-0.06 -0.06,-0.05 0.51,0.75 4.96,7.19 c 26.43,38.39 52.32,77.88 78.03,117.54 l 77.01,118.98 97.09,-60.23"
         style="fill:#f9a8b3;fill-opacity:1;fill-rule:nonzero;stroke:none"
         id="path154" /><path
         d="m 3490.89,2591.19 c -43.74,-16.74 -64.66,-44.68 -136.72,-140 l 117.03,-133.44 c 17.32,19.21 68.37,83.48 92.45,109.31 40.71,43.56 11.1,196.3 -72.76,164.13"
         style="fill:#17282f;fill-opacity:1;fill-rule:nonzero;stroke:none"
         id="path156" /><path
         d="m 3117.34,2384.61 -29.2,74.82 -61.74,-61.9 c 0,0 13.55,-32.68 50.19,-42.96 l 40.75,30.04"
         style="fill:#f9a8b3;fill-opacity:1;fill-rule:nonzero;stroke:none"
         id="path158" /><path
         d="m 3054.06,2506.97 -47.84,-56.76 20.18,-52.68 61.74,61.9 -34.08,47.54"
         style="fill:#f9a8b3;fill-opacity:1;fill-rule:nonzero;stroke:none"
         id="path160" /><path
         d="m 3117.58,376.988 -0.03,0.012 2.8,17.34 0.04,-0.008 -2.81,-17.344"
         style="fill:#c3c5c2;fill-opacity:1;fill-rule:nonzero;stroke:none"
         id="path162" /><path
         d="m 3117.55,377 -72.55,20.441 2.8,17.309 72.55,-20.41 -2.8,-17.34"
         style="fill:#d8898c;fill-opacity:1;fill-rule:nonzero;stroke:none"
         id="path164" /><path
         d="m 3705.58,274.73 h -0.05 l -1.87,17.418 h 0.04 l 1.88,-17.418"
         style="fill:#c3c5c2;fill-opacity:1;fill-rule:nonzero;stroke:none"
         id="path166" /><path
         d="m 3705.53,274.73 h -75.35 l -1.88,17.418 h 75.36 l 1.87,-17.418"
         style="fill:#d8898c;fill-opacity:1;fill-rule:nonzero;stroke:none"
         id="path168" /><path
         d="m 3917.82,2522.17 c -32.43,-80.16 -56.69,-162.78 -75.36,-241.01 -13.63,-57.25 -24.13,-112.16 -32.43,-162.09 -19.49,-117.03 -27.03,-207.09 -33.96,-237.1 -58.11,10.66 -277.1,50.89 -396.49,72.88 66.37,588.8 122.27,640 122.27,640 0,0 45.23,3.84 96.99,1.05 6.82,-0.33 13.73,-0.87 20.75,-1.52 45.37,-4.14 118.38,-19.25 168.57,-30.98 10.55,-2.47 21.19,-5.26 31.51,-8.14 52.53,-14.74 98.15,-33.09 98.15,-33.09"
         style="fill:#17282f;fill-opacity:1;fill-rule:nonzero;stroke:none"
         id="path170" /><path
         d="m 3840.93,2274.65 h -0.01 c 0.51,2.16 1.02,4.33 1.54,6.51 1.72,7.2 3.48,14.44 5.3,21.71 v 0 c -1.82,-7.29 -3.59,-14.53 -5.3,-21.75 -0.52,-2.16 -1.03,-4.32 -1.53,-6.47"
         style="fill:#acafad;fill-opacity:1;fill-rule:nonzero;stroke:none"
         id="path172" /><path
         d="m 3834.71,2247 c -0.02,0.04 -0.04,0.08 -0.06,0.12 2.01,9.1 4.1,18.28 6.27,27.53 h 0.01 c -2.18,-9.28 -4.27,-18.5 -6.22,-27.65"
         style="fill:#b6b8b6;fill-opacity:1;fill-rule:nonzero;stroke:none"
         id="path174" /><path
         d="m 3847.76,2302.87 c 0.28,1.12 0.56,2.24 0.84,3.36 -0.28,-1.12 -0.56,-2.24 -0.84,-3.36 v 0 m 3.86,15.21 c 0.02,0.1 0.05,0.19 0.07,0.29 -0.02,-0.1 -0.05,-0.19 -0.07,-0.29"
         style="fill:#b6b8b6;fill-opacity:1;fill-rule:nonzero;stroke:none"
         id="path176" /><path
         d="m 3873.58,2396.03 h -0.11 c 1.74,5.69 3.5,11.38 5.31,17.08 l 0.15,-0.03 c -1.82,-5.69 -3.6,-11.37 -5.35,-17.05"
         style="fill:#acafad;fill-opacity:1;fill-rule:nonzero;stroke:none"
         id="path178" /><path
         d="m 3851.8,2318.78 c 6.58,25.48 13.77,51.31 21.67,77.25 h 0.11 c -7.98,-25.95 -15.2,-51.77 -21.78,-77.25"
         style="fill:#b6b8b6;fill-opacity:1;fill-rule:nonzero;stroke:none"
         id="path180" /><path
         d="m 3834.65,2247.12 c -25.58,53.09 -37.66,111.74 -29.89,178.64 l 74.02,-12.65 c -1.81,-5.7 -3.57,-11.39 -5.31,-17.08 -7.9,-25.94 -15.09,-51.77 -21.67,-77.25 -0.04,-0.14 -0.07,-0.27 -0.11,-0.41 -0.02,-0.1 -0.05,-0.19 -0.07,-0.29 -1.02,-3.96 -2.03,-7.91 -3.02,-11.85 -0.28,-1.12 -0.56,-2.24 -0.84,-3.36 -1.82,-7.27 -3.58,-14.51 -5.3,-21.71 -0.52,-2.18 -1.03,-4.35 -1.54,-6.51 -2.17,-9.25 -4.26,-18.43 -6.27,-27.53"
         style="fill:#111d23;fill-opacity:1;fill-rule:nonzero;stroke:none"
         id="path182" /><path
         d="m 3806.35,2756.27 c -20.61,-52.28 -49.5,-149.7 -18.22,-192.86 -33.08,-23.53 -78.77,-40.33 -139.45,-27.8 -46.47,9.59 -42.82,42.64 -29.09,58.8 63.13,3.31 69.82,48.47 67.04,92.55 l 119.72,69.31"
         style="fill:#f9a8b3;fill-opacity:1;fill-rule:nonzero;stroke:none"
         id="path184" /><path
         d="m 3686.4,2656.12 c -0.01,0 -0.02,0 -0.02,0 0.09,0.84 0.18,1.68 0.25,2.53 -0.07,-0.85 -0.15,-1.69 -0.23,-2.53 m 0.28,30.87 v 0 l 10.94,6.33 -10.94,-6.33"
         style="fill:#b6b8b6;fill-opacity:1;fill-rule:nonzero;stroke:none"
         id="path186" /><path
         d="m 3687.99,2656.09 c -0.53,0 -1.07,0.01 -1.59,0.03 0.08,0.84 0.16,1.68 0.23,2.53 0.83,9.19 0.69,18.78 0.05,28.34 l 10.94,6.33 59.92,34.66 c 0.93,-5.98 -0.69,-17.67 -4.14,-29.51 -6.75,-23.2 -41.68,-42.38 -65.41,-42.38"
         style="fill:#d8898c;fill-opacity:1;fill-rule:nonzero;stroke:none"
         id="path188" /><path
         d="m 3677.21,2967.12 c -33.82,-3.04 -57.59,-93.03 -37.44,-137.26 20.15,-44.23 114.21,144.16 37.44,137.26"
         style="fill:#17282f;fill-opacity:1;fill-rule:nonzero;stroke:none"
         id="path190" /><path
         d="m 3845.58,2841.81 c -20.36,-71.99 -28.61,-115.15 -73.61,-144.58 -67.69,-44.27 -150.47,8.74 -152.03,85.36 -1.4,68.96 32.12,175.09 109.85,188.58 76.59,13.3 136.15,-57.38 115.79,-129.36"
         style="fill:#f9a8b3;fill-opacity:1;fill-rule:nonzero;stroke:none"
         id="path192" /><path
         d="m 3843.33,2785.62 c -37.96,-26.22 -60.55,61.65 -32.77,113.88 -53.89,1.67 -184.31,-9.36 -161.86,98.34 15.48,74.3 99.63,61.11 135.74,34.72 19.73,-14.41 46.81,5.56 46.81,5.56 0,0 -17.08,-37.92 -51.81,-27.23 -23.87,7.36 -41.27,-2.22 -21.64,-14.85 28.55,-18.4 158.87,1.66 146.09,-63.75 32.22,-4.45 -13.89,-114.45 -60.56,-146.67"
         style="fill:#17282f;fill-opacity:1;fill-rule:nonzero;stroke:none"
         id="path194" /><path
         d="m 3897.04,2921.26 c 0,0 -7.5,35.46 44.96,13.88 -13.29,0.54 -37.98,-1.85 -44.96,-13.88"
         style="fill:#17282f;fill-opacity:1;fill-rule:nonzero;stroke:none"
         id="path196" /><path
         d="m 3690.84,2760.91 h 0.04 c 30.73,-2.11 46.26,17.98 46.9,18.84 l -0.37,2.69 -2.69,-0.37 c -0.15,-0.19 -14.99,-19.29 -43.57,-17.32 -1.06,0.07 -1.98,-0.73 -2.05,-1.79 -0.08,-1.05 0.7,-1.95 1.74,-2.05"
         style="fill:#17282f;fill-opacity:1;fill-rule:nonzero;stroke:none"
         id="path198" /><path
         d="m 3854.58,2767.51 c -10.15,-17.44 -27.39,-28.56 -43.48,-32.55 -24.21,-5.99 -35.56,15.84 -28.22,38.29 6.62,20.21 27.18,47.69 51.17,43.7 23.64,-3.93 32.12,-29.5 20.53,-49.44"
         style="fill:#f9a8b3;fill-opacity:1;fill-rule:nonzero;stroke:none"
         id="path200" /><path
         d="m 3022.53,421.852 122.86,-34.551 c 0,0 117.16,418.488 189.91,677.939 19.29,68.79 48.94,165.53 84.32,268.23 44.63,129.39 98.03,268.72 141.17,377.68 45.49,114.75 79.4,195.77 79.4,195.77 l -260.66,47.93 c 0,0 -210.76,-599.85 -256.1,-825.39 -47.18,-234.499 -100.9,-707.608 -100.9,-707.608"
         style="fill:#406fbf;fill-opacity:1;fill-rule:nonzero;stroke:none"
         id="path202" /><path
         d="m 3145.39,387.301 -25.04,7.039 -72.55,20.41 -25.27,7.102 c 0,0 53.72,473.109 100.9,707.608 20.46,101.77 74.59,279.75 127.85,444.45 l 10.36,-5.45 c 13.86,-7.27 27.05,-10.56 39.54,-10.56 116.16,-0.02 173.58,283.84 173.76,284.73 l 36.59,-19.22 c 0.56,-0.29 1.11,-0.58 1.67,-0.87 -1.76,-27.61 -3.76,-59.5 -5.89,-94.39 -54.1,-97.9 -85.95,-283.87 -87.69,-394.68 v 0 c -35.38,-102.7 -65.03,-199.44 -84.32,-268.23 -1.87,-6.67 -3.78,-13.46 -5.7,-20.32 v 0 c -12.47,-44.48 -26.05,-92.92 -40,-142.729 v 0 c -47.62,-169.929 -99.55,-355.382 -126.19,-450.562 -0.24,-0.84 -0.47,-1.668 -0.7,-2.5 -10.85,-38.719 -17.32,-61.828 -17.32,-61.828"
         style="fill:#6d97d6;fill-opacity:1;fill-rule:nonzero;stroke:none"
         id="path204" /><path
         d="m 3419.62,1333.47 c 1.74,110.81 33.59,296.78 87.69,394.68 -3.37,-55.12 -7.06,-117.67 -10.64,-182.52 -1.93,-5.12 -3.87,-10.24 -5.81,-15.39 -4.98,-13.24 -9.97,-26.59 -14.95,-40 -19.35,-52.14 -38.51,-105.24 -56.29,-156.77"
         style="fill:#557ec8;fill-opacity:1;fill-rule:nonzero;stroke:none"
         id="path206" /><path
         d="m 3520.17,1928.99 c 0,0 -44.04,-646.5 -41.34,-867.34 2.95,-241.83 116.51,-769.502 116.51,-769.502 h 138.06 c 0,0 -43.19,469.622 -47.36,706.832 -4.7,268.57 89.98,882.95 89.98,882.95 l -255.85,47.06"
         style="fill:#406fbf;fill-opacity:1;fill-rule:nonzero;stroke:none"
         id="path208" /><path
         d="m 3733.4,292.148 h -138.06 c 0,0 -89.94,417.911 -111.82,680.352 -2.7,32.45 -4.37,62.54 -4.69,89.15 -0.08,6.58 -0.12,13.54 -0.12,20.84 0,176 22.68,554.77 34.49,740.05 32.09,-16.5 66.49,-24.33 100.45,-24.33 59.6,0 117.87,24.1 159.94,67.68 -6.77,-45.05 -26.58,-179.64 -45.66,-335.65 -1.62,-13.2 -3.23,-26.53 -4.82,-40 -19.63,-165.63 -37.22,-348.24 -37.24,-470.98 0,-6.96 0.06,-13.72 0.17,-20.28 4.17,-237.21 47.36,-706.832 47.36,-706.832"
         style="fill:#6d97d6;fill-opacity:1;fill-rule:nonzero;stroke:none"
         id="path210" /><path
         d="m 3578.82,289.172 h 162.57 v 48.558 l -181.73,3.161 19.16,-51.719"
         style="fill:#17282f;fill-opacity:1;fill-rule:nonzero;stroke:none"
         id="path212" /><path
         d="m 3014.02,421.16 138.68,-39.058 20.29,47.75 -158.09,44.789 -0.88,-53.481"
         style="fill:#17282f;fill-opacity:1;fill-rule:nonzero;stroke:none"
         id="path214" /><path
         d="m 3730.48,2845.5 c -1.29,-5.95 -5.49,-10.08 -9.37,-9.23 -3.88,0.85 -5.98,6.34 -4.69,12.28 1.29,5.95 5.48,10.08 9.37,9.23 3.88,-0.84 5.98,-6.34 4.69,-12.28"
         style="fill:#17282f;fill-opacity:1;fill-rule:nonzero;stroke:none"
         id="path216" /><path
         d="m 3663.33,2860.11 c -1.29,-5.94 -5.49,-10.07 -9.37,-9.23 -3.88,0.85 -5.98,6.35 -4.69,12.29 1.29,5.94 5.49,10.07 9.37,9.22 3.88,-0.84 5.98,-6.34 4.69,-12.28"
         style="fill:#17282f;fill-opacity:1;fill-rule:nonzero;stroke:none"
         id="path218" /><path
         d="m 3684.04,2852.51 c 0,0 -20.97,-31.33 -39.44,-44.63 8.38,-12.1 28.35,-10.18 28.35,-10.18 l 11.09,54.81"
         style="fill:#f46878;fill-opacity:1;fill-rule:nonzero;stroke:none"
         id="path220" /><path
         d="m 3756.06,2862.67 c -1.3,0.04 -2.53,0.8 -3.12,2.07 -6.68,14.45 -19.68,16.49 -19.81,16.51 -1.95,0.29 -3.31,2.09 -3.02,4.05 0.28,1.94 2.01,3.34 4.05,3.02 0.68,-0.11 16.97,-2.66 25.26,-20.59 0.83,-1.78 0.05,-3.91 -1.74,-4.73 l -1.62,-0.33"
         style="fill:#17282f;fill-opacity:1;fill-rule:nonzero;stroke:none"
         id="path222" /><path
         d="m 3639.58,2889.49 -2.07,0.76 c -1.55,1.22 -1.82,3.47 -0.6,5.02 12.21,15.52 28.63,14.28 29.34,14.18 1.97,-0.17 3.41,-1.9 3.24,-3.87 -0.18,-1.96 -2,-3.4 -3.86,-3.24 -0.56,0 -13.34,0.92 -23.11,-11.49 -0.73,-0.93 -1.84,-1.4 -2.94,-1.36"
         style="fill:#17282f;fill-opacity:1;fill-rule:nonzero;stroke:none"
         id="path224" /><path
         d="m 3596.92,201.359 c -0.93,0 -1.71,-0.14 -2.32,-0.449 -0.48,-0.25 -1.04,-0.711 -1.12,-2.101 -0.18,-2.84 0.61,-4.957 2.42,-6.477 4.13,-3.461 13.96,-3.934 26.76,-1.363 -8.5,4.922 -19.96,10.39 -25.74,10.39 z m 11.2,-15.609 c -5.73,0 -11.1,0.98 -14.52,3.852 -2.7,2.269 -3.94,5.437 -3.69,9.437 0.19,2.973 1.77,4.383 3.06,5.043 8.37,4.309 32.66,-10.66 35.39,-12.371 l 0.82,-1.801 -1.34,-1.449 c -5.23,-1.262 -12.75,-2.711 -19.72,-2.711"
         style="fill:#406fbf;fill-opacity:1;fill-rule:nonzero;stroke:none"
         id="path226" /><path
         d="m 3612.21,218.969 -0.81,-0.047 c -2.32,-0.281 -2.52,-1.352 -2.61,-1.813 -0.94,-4.961 8.67,-17.437 16.42,-23.328 -0.88,6.36 -3.29,19.039 -8.9,23.617 -1.29,1.051 -2.63,1.571 -4.1,1.571 z m 15.21,-30.559 -0.85,0.219 c -7.8,4.23 -22.88,20.75 -21.29,29.152 0.29,1.528 1.41,4.16 5.69,4.68 2.75,0.328 5.32,-0.43 7.6,-2.289 8.75,-7.16 10.56,-28.91 10.63,-29.832 l -0.81,-1.641 -0.97,-0.289"
         style="fill:#406fbf;fill-opacity:1;fill-rule:nonzero;stroke:none"
         id="path228" /><path
         d="m 2988.77,336.582 -0.5,-0.082 -1.6,-1.531 c -0.83,-2.27 -0.67,-4.27 0.51,-6.098 3.35,-5.211 15.1,-9.269 31.86,-11.129 -10.07,8.828 -24.39,19.449 -30.27,18.84 z m 35.64,-22.891 -0.32,-0.011 c -12.35,0.968 -33.95,3.98 -39.91,13.261 -1.8,2.789 -2.09,5.911 -0.86,9.258 0.72,2 2.15,3.301 4.12,3.781 10.11,2.301 35.19,-20.582 38,-23.21 l 0.42,-2.032 -1.45,-1.047"
         style="fill:#406fbf;fill-opacity:1;fill-rule:nonzero;stroke:none"
         id="path230" /><path
         d="m 3011.22,348.512 c -1.39,-0.153 -1.71,-0.84 -1.84,-1.121 -2.18,-4.692 6.14,-20.34 13.56,-28.231 0.68,5.969 1.38,18.391 -3.27,25.07 -1.62,2.329 -3.71,3.692 -6.38,4.149 z m 13.19,-34.821 -1.32,0.411 c -7.66,6.386 -20.58,26.968 -16.94,34.796 0.85,1.832 2.92,3.852 7.75,3 3.6,-0.628 6.53,-2.527 8.7,-5.628 7.09,-10.18 3.54,-30.282 3.38,-31.122 l -1.14,-1.367 -0.43,-0.09"
         style="fill:#406fbf;fill-opacity:1;fill-rule:nonzero;stroke:none"
         id="path232" /><path
         d="m 3474.94,1842.63 -181.1,95.11 c 24.91,-109.02 -79.33,-175.18 -165.82,-210.48 -41.34,-16.87 -32.2,-71.71 15.83,-96.94 l 117.79,-61.86 c 142.87,-75.02 213.3,274.17 213.3,274.17"
         style="fill:#17282f;fill-opacity:1;fill-rule:nonzero;stroke:none"
         id="path234" /><path
         d="m 3511.53,1823.41 -331.57,174.13 c -107.64,56.53 -149.45,190.84 -92.92,298.47 56.52,107.64 190.84,149.45 298.47,92.93 l 331.58,-174.13 c 107.63,-56.53 149.44,-190.84 92.92,-298.48 -56.53,-107.63 -190.84,-149.45 -298.48,-92.92"
         style="fill:#406fbf;fill-opacity:1;fill-rule:nonzero;stroke:none"
         id="path236" /><path
         d="m 3613.65,1798.21 c -34.55,0 -69.55,8.1 -102.12,25.2 l -36.59,19.22 -134.79,70.79 c 11.98,15.65 24.75,34.02 37.89,54.31 20.59,31.76 42.08,68.18 62.76,106.08 l -0.03,0.02 c 44.12,80.86 84.57,168.28 104.93,230.98 l 171.39,-90 c 75.04,-39.42 118.09,-116.65 118.12,-196.28 0.01,-34.58 -8.09,-69.61 -25.2,-102.2 -39.43,-75.07 -116.7,-118.12 -196.36,-118.12"
         style="fill:#2d5bb2;fill-opacity:1;fill-rule:nonzero;stroke:none"
         id="path238" /><path
         d="m 3704.22,2137.87 -94.06,49.4 c -10.69,5.61 -14.84,18.94 -9.23,29.62 5.61,10.68 18.94,14.82 29.62,9.22 l 94.06,-49.4 c 10.68,-5.61 14.83,-18.94 9.23,-29.62 -5.61,-10.68 -18.94,-14.83 -29.62,-9.22"
         style="fill:#ffffff;fill-opacity:1;fill-rule:nonzero;stroke:none"
         id="path240" /><path
         d="m 3548.09,2219.86 -46.95,24.66 c -10.68,5.61 -14.83,18.93 -9.22,29.61 5.61,10.69 18.94,14.83 29.62,9.23 l 46.95,-24.66 c 10.68,-5.61 14.83,-18.94 9.22,-29.61 -5.62,-10.69 -18.94,-14.83 -29.62,-9.23"
         style="fill:#ffffff;fill-opacity:1;fill-rule:nonzero;stroke:none"
         id="path242" /><path
         d="m 2577.02,2103.84 695.83,-243.88 c 58.42,-30.68 337.07,499.92 278.65,530.6 l -595.76,434.42 -378.72,-721.14"
         style="fill:#406fbf;fill-opacity:1;fill-rule:nonzero;stroke:none"
         id="path244" /><path
         d="m 3378.04,1967.73 c 20.59,31.78 42.06,68.22 62.73,106.1 l 0.03,-0.02 c -20.68,-37.9 -42.17,-74.32 -62.76,-106.08"
         style="fill:#244d9b;fill-opacity:1;fill-rule:nonzero;stroke:none"
         id="path246" /><path
         d="m 3351.2,1928.32 -692.6,245.4 c 32.3,42.1 70.6,100.69 110.3,169.4 l 671.87,-269.29 c -20.67,-37.88 -42.14,-74.32 -62.73,-106.1 -9.18,-14.16 -18.17,-27.39 -26.84,-39.41"
         style="fill:#3563b7;fill-opacity:1;fill-rule:nonzero;stroke:none"
         id="path248" /><path
         d="m 2820.15,2436.17 c -104.58,-199.14 -213.43,-347.93 -243.13,-332.33 -29.7,15.6 31,189.67 135.58,388.81 104.58,199.14 213.44,347.93 243.14,332.33 29.69,-15.59 -31.01,-189.67 -135.59,-388.81"
         style="fill:#17282f;fill-opacity:1;fill-rule:nonzero;stroke:none"
         id="path250" /><path
         d="m 3924.25,2480.64 c 8.35,-12.48 14.99,-23.17 21.79,-34.98 6.72,-11.55 13.19,-23.19 19.48,-34.95 12.49,-23.56 23.94,-47.71 34.27,-72.58 10.32,-24.85 19.68,-50.36 27.29,-76.82 7.73,-26.41 13.92,-53.75 17.33,-82.32 0.48,-3.54 0.76,-7.19 1.13,-10.78 l 0.53,-5.4 0.33,-4.93 c 0.06,-1.89 0.19,-3.78 0.11,-5.67 -0.24,-15.21 -4.66,-29.84 -10.57,-40.78 -12.14,-22.2 -27,-34.06 -40.34,-43.96 -27.1,-19.11 -53.27,-29.25 -79.18,-38.55 -52.06,-17.48 -102.89,-27.06 -155.88,-32.38 l -11.74,55.36 c 45.61,17.1 92.33,35.86 133.72,57.26 20.52,10.51 40.24,22.8 53.31,34.62 6.43,5.65 10.16,11.94 9.48,12.44 -0.12,0.31 -1.44,-1.71 -1.58,-4.28 l -0.1,-0.93 0.01,-0.47 0.02,-0.23 -0.09,0.49 -0.74,4 c -0.52,2.67 -0.91,5.31 -1.51,8 -8.97,42.92 -25.74,86.95 -45.49,129.86 -9.88,21.52 -20.76,42.8 -31.96,63.93 -5.61,10.56 -11.41,21.05 -17.38,31.37 -5.91,10.06 -12.27,21.08 -17.66,29.84 l 95.42,62.84"
         style="fill:#f9a8b3;fill-opacity:1;fill-rule:nonzero;stroke:none"
         id="path252" /><path
         d="m 3995.58,2432.87 c -10.79,26.05 -28.26,50.82 -48.79,70.48 -38.58,36.92 -106.47,36.38 -136.96,-9.56 -3.71,-5.6 -6.77,-11.63 -8.9,-18 -8.72,-26.15 -3.87,-54.98 5.47,-80.25 22.26,-60.19 46.91,-119.93 73.81,-178.19 l 0.17,-0.38 153.45,123.5 c -12.75,30.8 -25.5,61.6 -38.25,92.4"
         style="fill:#17282f;fill-opacity:1;fill-rule:nonzero;stroke:none"
         id="path254" /><path
         d="m 3774.52,2047.12 -65.48,39.59 -10.91,-95.66 c 0,0 63.23,-21.33 78.27,10.91 l -1.88,45.16"
         style="fill:#f9a8b3;fill-opacity:1;fill-rule:nonzero;stroke:none"
         id="path256" /><path
         d="m 3639.01,2076.03 4.17,-71.87 54.95,-13.11 10.91,95.66 -70.03,-10.68"
         style="fill:#f9a8b3;fill-opacity:1;fill-rule:nonzero;stroke:none"
         id="path258" /><path
         d="m 2233.15,2888.95 c 23.81,4.19 46.12,12.57 65.81,25.55 29.32,19.32 49.36,46.4 60.13,77.89 -32.57,-12.65 -66.97,-15.03 -102.16,-9.35 55.95,10.19 105,35.25 138.6,75.1 27.16,32.22 41,70.21 42.68,110.13 -36.74,-28.41 -80.3,-43.21 -128.18,-47.07 47.53,28.83 84.01,68.53 102.3,116.48 15.59,40.87 19.32,76.09 8.77,103.86 -68.81,-74.09 -167.98,-105.31 -290.11,-106.67 -0.08,14.29 0.19,28.72 0.81,43.27 l -0.06,0.01 c 4.15,70.56 -41.95,136.47 -112.99,154.68 -65.44,16.78 -131.86,-12.08 -165.62,-66.67 -22,9.47 -53.18,24.61 -72.96,41.76 6.98,-28.28 25.17,-57.25 46.2,-76.39 -21.26,6.17 -46.46,15.02 -64.43,26.32 12.42,-29.85 38.63,-58.46 65.13,-73.28 -39.06,-234.97 107.51,-464.9 342.51,-525.16 78.15,-20.04 156.75,-18.94 229.74,-0.28 -70.12,31.33 -124.9,75.7 -166.17,129.82"
         style="fill:#406fbf;fill-opacity:1;fill-rule:nonzero;stroke:none"
         id="path260" /><path
         d="m 1117.72,2318.31 c 4.02,6.3 6.77,13.14 7.92,20.33 1.72,10.72 -0.26,20.95 -5.2,29.98 -3.91,-10.07 -10.56,-18.4 -19.2,-25.24 9.36,14.88 13.9,31.3 11.83,47.28 -1.67,12.92 -7.44,24.01 -16.19,32.73 -1.2,-14.31 -6.92,-27.33 -16.04,-39.05 3.35,16.86 1.92,33.47 -5.19,47.65 -6.06,12.09 -13.31,20.3 -21.84,23.69 2.52,-31.16 -11.08,-60.28 -36.28,-88.41 -3.27,2.97 -6.5,6.04 -9.69,9.22 h -0.02 c -15.215,15.68 -39.871,18.94 -58.855,6.55 -17.496,-11.41 -24.789,-32.59 -19.399,-51.68 -6.753,-3.04 -16.718,-6.98 -24.757,-7.91 7.902,-4.32 18.304,-6.22 27.062,-5.42 -5.848,-3.56 -13.133,-7.46 -19.461,-9.19 9.403,-3.41 21.395,-3.41 30.309,-0.47 45.402,-57.98 128.431,-72.59 191.251,-31.61 20.89,13.63 37.06,31.77 48.05,52.31 -21.79,-9.44 -43.34,-12.66 -64.3,-10.76"
         style="fill:#406fbf;fill-opacity:1;fill-rule:nonzero;stroke:none"
         id="path262" /><path
         d="m 2341.74,2345.9 c 7.62,11.6 12.9,24.24 15.23,37.58 3.46,19.88 0.02,38.93 -8.91,55.83 -7.53,-18.6 -20.09,-33.93 -36.32,-46.42 17.77,27.42 26.6,57.81 23.16,87.56 -2.78,24.05 -13.23,44.8 -29.27,61.22 -2.57,-26.56 -13.54,-50.61 -30.78,-72.16 6.66,31.24 4.41,62.13 -8.45,88.67 -10.95,22.61 -24.22,38.04 -39.99,44.56 3.9,-57.96 -22.09,-111.74 -69.61,-163.37 -6.01,5.6 -11.94,11.39 -17.79,17.38 l -0.02,-0.02 c -27.89,29.52 -73.61,36.18 -109.2,13.64 -32.8,-20.77 -46.87,-59.92 -37.33,-95.54 -12.63,-5.47 -31.24,-12.56 -46.2,-14.08 14.57,-8.22 33.86,-12.02 50.15,-10.75 -10.96,-6.47 -24.58,-13.53 -36.39,-16.59 17.38,-6.56 39.67,-6.86 56.31,-1.61 82.92,-108.87 236.82,-138.09 354.57,-63.51 39.16,24.8 69.65,58.12 90.58,96 -40.72,-16.99 -80.85,-22.44 -119.74,-18.39"
         style="fill:#406fbf;fill-opacity:1;fill-rule:nonzero;stroke:none"
         id="path264" /><path
         d="m 1562.06,2631.24 c 14.08,9.16 26.06,20.6 35.11,34.26 13.47,20.34 18.9,43.11 17.2,66.18 -17.36,-16.96 -38.71,-27.85 -62.75,-33.81 32.99,21.76 57.52,51.15 68.14,85.77 8.58,28 7.08,56.06 -2.73,82.03 -15.74,-28.17 -39.56,-49.5 -69.11,-65.01 22.52,31.38 35.02,66.7 33.65,102.34 -1.17,30.37 -8.38,53.9 -22.69,68.78 -23.81,-66.12 -78.69,-113.1 -156.39,-147.24 -3.95,9.11 -7.7,18.4 -11.27,27.87 l -0.05,-0.01 c -16.57,46.24 -64.01,75.81 -114.38,68.1 -46.4,-7.11 -81,-43.66 -87.7,-87.75 -16.65,0.05 -40.71,1.23 -58.03,6.8 12.17,-16.17 31.69,-29.73 50.36,-36.24 -15.28,-1.85 -33.8,-3.06 -48.37,-0.73 16.08,-15.7 40.63,-26.84 61.61,-29.1 39.06,-160.85 195.41,-267.89 362.06,-242.38 55.42,8.49 105.37,30.61 146.94,62.43 -53.36,0.92 -100.47,14.36 -141.6,37.71"
         style="fill:#406fbf;fill-opacity:1;fill-rule:nonzero;stroke:none"
         id="path266" /><path
         d="m 1507.55,2527.35 c -147.34,0 -277.7,101.23 -312.89,246.13 -20.98,2.26 -45.53,13.4 -61.61,29.1 5.71,-0.91 12.03,-1.28 18.52,-1.28 10.07,0 20.56,0.89 29.85,2.01 v 0 0 c -18.67,6.51 -38.19,20.07 -50.36,36.24 17.32,-5.57 41.38,-6.75 58.03,-6.8 6.7,44.09 41.3,80.64 87.7,87.75 5.37,0.82 10.7,1.22 15.97,1.22 44.16,0 83.61,-28.01 98.41,-69.32 l 0.05,0.01 c 3.57,-9.47 7.32,-18.76 11.27,-27.87 77.7,34.14 132.58,81.12 156.39,147.24 14.31,-14.88 21.52,-38.41 22.69,-68.78 0.07,-1.81 0.1,-3.62 0.1,-5.43 -0.02,-33.79 -12.37,-67.12 -33.75,-96.91 v 0 0 c 29.55,15.51 53.37,36.84 69.11,65.01 5.48,-14.51 8.36,-29.67 8.35,-45.1 -0.01,-12.2 -1.84,-24.57 -5.62,-36.93 -10.62,-34.62 -35.15,-64.01 -68.14,-85.77 v 0 0 c 24.04,5.96 45.39,16.85 62.75,33.81 0.2,-2.7 0.3,-5.4 0.31,-8.09 0.01,-13.71 -2.56,-27.21 -7.9,-40.08 -2.56,-6.17 -5.76,-12.19 -9.61,-18.01 -9.05,-13.66 -21.03,-25.1 -35.11,-34.26 v 0 0 c 41.13,-23.35 88.24,-36.79 141.6,-37.71 -41.57,-31.82 -91.52,-53.94 -146.94,-62.43 -16.53,-2.53 -32.95,-3.75 -49.17,-3.75"
         style="fill:#2d5bb2;fill-opacity:1;fill-rule:nonzero;stroke:none"
         id="path268" /><path
         d="m 2695.37,2759.05 c 7.2,1.89 13.84,5.02 19.55,9.5 8.51,6.67 13.98,15.49 16.5,25.43 -9.68,-4.71 -20.18,-6.3 -31.13,-5.45 16.92,4.54 31.35,13.47 40.65,26.54 7.53,10.58 10.82,22.59 10.32,34.88 -10.55,-9.64 -23.55,-15.28 -38.15,-17.67 13.86,10.04 24.06,23.15 28.46,38.33 3.76,12.94 4.02,23.84 0.08,32.1 -19.26,-24.48 -48.91,-36.56 -86.36,-40.06 -0.38,4.39 -0.67,8.82 -0.84,13.3 l -0.02,0.01 c -0.5,21.76 -16.32,40.83 -38.58,44.63 -20.51,3.5 -40.17,-7.04 -49.16,-24.64 -6.99,2.35 -16.94,6.21 -23.44,10.98 2.85,-8.51 9.16,-16.95 16.11,-22.29 -6.69,1.36 -14.65,3.44 -20.45,6.46 4.57,-8.85 13.33,-16.97 21.84,-20.85 -6.07,-73.11 44.72,-139.99 118.37,-152.56 24.49,-4.18 48.59,-1.87 70.52,5.7 -22.31,7.85 -40.24,20.09 -54.27,35.66"
         style="fill:#406fbf;fill-opacity:1;fill-rule:nonzero;stroke:none"
         id="path270" /><path
         d="m 2703.34,2715.63 c -7.99,0 -16.08,0.67 -24.22,2.06 -69.62,11.88 -118.81,72.3 -118.86,140.63 0,3.95 0.16,7.93 0.49,11.93 v 0 0 c -4.55,2.07 -9.18,5.37 -13.2,9.34 -0.86,0.85 -1.7,1.73 -2.5,2.64 -2.43,2.77 -4.54,5.77 -6.14,8.87 5.8,-3.02 13.76,-5.1 20.45,-6.46 v 0 0 c -4.45,3.42 -8.63,8.1 -11.81,13.26 -0.92,1.49 -1.76,3.03 -2.5,4.58 -0.7,1.47 -1.3,2.96 -1.8,4.45 6.5,-4.77 16.45,-8.63 23.44,-10.98 7.83,15.34 23.76,25.3 41.29,25.3 2.6,0 5.23,-0.21 7.87,-0.66 22.26,-3.8 38.08,-22.87 38.58,-44.63 l 0.02,-0.01 c 0.17,-4.48 0.46,-8.91 0.84,-13.3 37.45,3.5 67.1,15.58 86.36,40.06 1.92,-4.03 2.84,-8.7 2.85,-13.92 0,-5.47 -1.01,-11.56 -2.93,-18.18 -4.4,-15.18 -14.6,-28.29 -28.46,-38.33 v 0 0 c 14.6,2.39 27.6,8.03 38.15,17.67 0.04,-0.81 0.05,-1.63 0.05,-2.44 -0.01,-11.44 -3.34,-22.56 -10.37,-32.44 -9.3,-13.07 -23.73,-22 -40.65,-26.54 v 0 0 c 1.87,-0.14 3.73,-0.22 5.57,-0.22 8.94,0 17.53,1.76 25.56,5.67 -2.52,-9.94 -7.99,-18.76 -16.5,-25.43 -5.71,-4.48 -12.35,-7.61 -19.55,-9.5 v 0 0 c 14.03,-15.57 31.96,-27.81 54.27,-35.66 -14.64,-5.05 -30.25,-7.76 -46.3,-7.76"
         style="fill:#2d5bb2;fill-opacity:1;fill-rule:nonzero;stroke:none"
         id="path272" /><path
         d="m 1764.13,2035.23 c 6.17,8.8 10.65,18.41 12.78,28.68 3.19,15.37 0.99,30.27 -5.53,43.64 -6.35,-14.35 -16.56,-25.99 -29.57,-35.32 14.57,20.92 22.3,44.36 20.36,67.63 -1.56,18.78 -9.17,35.17 -21.23,48.34 -2.67,-20.6 -11.81,-39.05 -25.77,-55.38 5.96,24.14 5.02,48.23 -4.33,69.2 -7.95,17.86 -17.88,30.19 -29.99,35.65 1.59,-45.17 -19.97,-86.34 -58.21,-125.3 -4.53,4.5 -9,9.15 -13.4,13.95 l -0.02,-0.01 c -20.94,23.65 -56.34,29.97 -84.58,13.33 -26.02,-15.33 -37.95,-45.43 -31.41,-73.36 -9.96,-3.95 -24.61,-8.99 -36.28,-9.8 11.18,-6.79 26.14,-10.16 38.88,-9.54 -8.71,-4.78 -19.55,-9.97 -28.86,-12.07 13.35,-5.53 30.66,-6.3 43.73,-2.63 61.76,-86.75 180.73,-113.33 274.18,-58.26 31.06,18.31 55.6,43.45 72.83,72.39 -32.1,-12.2 -63.42,-15.27 -93.58,-11.14"
         style="fill:#406fbf;fill-opacity:1;fill-rule:nonzero;stroke:none"
         id="path274" /><path
         d="m 1679.81,1945.24 c -65.38,0 -129.19,30.93 -169.11,87 -5.32,-1.5 -11.35,-2.25 -17.52,-2.25 -8.99,0 -18.3,1.6 -26.21,4.88 9.31,2.1 20.15,7.29 28.86,12.07 v 0 0 c -1,-0.05 -2.01,-0.07 -3.03,-0.07 -12.03,0 -25.54,3.35 -35.85,9.61 11.67,0.81 26.32,5.85 36.28,9.8 v 0 0 c -1.19,5.07 -1.77,10.22 -1.76,15.33 0.02,23.05 11.88,45.48 33.17,58.03 10.74,6.33 22.5,9.33 34.12,9.33 18.94,0 37.48,-8 50.46,-22.66 l 0.02,0.01 c 4.4,-4.8 8.87,-9.45 13.4,-13.95 36.9,37.59 58.26,77.24 58.3,120.55 0,1.58 -0.03,3.17 -0.09,4.75 12.11,-5.46 22.04,-17.79 29.99,-35.65 5.48,-12.29 8.07,-25.65 8.08,-39.46 0,-9.76 -1.28,-19.75 -3.75,-29.74 v 0 0 c 13.96,16.33 23.1,34.78 25.77,55.38 12.06,-13.17 19.67,-29.56 21.23,-48.34 0.19,-2.36 0.29,-4.73 0.29,-7.09 0.01,-20.91 -7.56,-41.75 -20.65,-60.54 v 0 0 c 13.01,9.33 23.22,20.97 29.57,35.32 4.53,-9.3 6.98,-19.34 6.98,-29.75 -0.01,-4.57 -0.48,-9.21 -1.45,-13.89 -2.13,-10.27 -6.61,-19.88 -12.78,-28.68 v 0 0 c 8.34,-1.14 16.76,-1.73 25.27,-1.73 22.26,0 45.09,4.04 68.31,12.87 -17.23,-28.94 -41.77,-54.08 -72.83,-72.39 -33.05,-19.48 -69.3,-28.74 -105.07,-28.74"
         style="fill:#7da6dd;fill-opacity:1;fill-rule:nonzero;stroke:none"
         id="path276" /><path
         d="m 816.863,2768.24 c 8.696,5.74 16.141,12.8 21.715,21.29 8.336,12.71 11.652,26.92 10.535,41.28 -10.82,-10.66 -24.152,-17.52 -39.195,-21.29 20.562,13.66 35.863,32.02 42.391,53.68 5.269,17.46 4.254,34.94 -1.922,51.09 -9.742,-17.61 -24.535,-30.97 -42.922,-40.72 13.961,19.62 21.676,41.66 20.719,63.87 -0.817,18.92 -5.375,33.56 -14.332,42.79 -14.641,-41.26 -48.7,-70.68 -97.004,-92.18 -2.485,5.67 -4.856,11.45 -7.106,17.34 l -0.031,-0.01 c -10.449,28.76 -40.086,47.04 -71.445,42.09 -28.895,-4.56 -50.34,-27.42 -54.387,-54.91 -10.375,-0.01 -25.363,0.65 -36.168,4.07 7.66,-10.09 19.93,-18.44 31.629,-22.41 -9.539,-1.21 -21.152,-2.03 -30.289,-0.61 10.058,-9.73 25.383,-16.58 38.457,-17.93 24.781,-100.11 122.496,-166.36 226.262,-149.99 34.492,5.44 65.546,19.37 91.351,39.3 -33.258,0.43 -62.558,8.81 -88.258,23.25"
         style="fill:#406fbf;fill-opacity:1;fill-rule:nonzero;stroke:none"
         id="path278" /><path
         d="m 782.23,2703.21 c -91.425,0 -172.472,62.59 -194.722,152.47 -13.074,1.35 -28.399,8.2 -38.457,17.93 3.426,-0.53 7.199,-0.75 11.078,-0.75 6.473,0 13.25,0.6 19.211,1.36 v 0 0 c -11.699,3.97 -23.969,12.32 -31.629,22.41 10.727,-3.39 25.574,-4.07 35.937,-4.07 0.075,0 0.153,0 0.231,0 4.047,27.49 25.492,50.35 54.387,54.91 3.445,0.55 6.867,0.81 10.246,0.81 27.39,0 51.898,-17.3 61.199,-42.9 l 0.031,0.01 c 2.25,-5.89 4.621,-11.67 7.106,-17.34 48.304,21.5 82.363,50.92 97.004,92.18 8.957,-9.23 13.515,-23.87 14.332,-42.79 0.05,-1.21 0.078,-2.43 0.078,-3.64 0.015,-20.36 -7.16,-40.47 -19.649,-58.59 -0.379,-0.55 -0.761,-1.1 -1.148,-1.64 v 0 0 c 18.387,9.75 33.18,23.11 42.922,40.72 3.472,-9.09 5.316,-18.59 5.324,-28.28 0.008,-7.53 -1.098,-15.17 -3.402,-22.81 -4.032,-13.38 -11.411,-25.5 -21.309,-36.03 -6.129,-6.52 -13.219,-12.43 -21.082,-17.65 v 0 0 c 15.043,3.77 28.375,10.63 39.195,21.29 0.137,-1.79 0.207,-3.59 0.207,-5.38 0,-12.51 -3.449,-24.78 -10.742,-35.9 -2.238,-3.4 -4.777,-6.58 -7.578,-9.54 -4.176,-4.41 -8.93,-8.32 -14.137,-11.75 v 0 0 c 25.7,-14.44 55,-22.82 88.258,-23.25 -21.43,-16.55 -46.484,-28.97 -74.121,-35.81 v 0 c -5.641,-1.4 -11.383,-2.57 -17.23,-3.49 -1.723,-0.27 -3.438,-0.52 -5.157,-0.75 -8.859,-1.16 -17.668,-1.73 -26.383,-1.73"
         style="fill:#7da6dd;fill-opacity:1;fill-rule:nonzero;stroke:none"
         id="path280" /><path
         d="m 1407.01,3299.08 c 14.22,2.21 27.65,6.8 39.55,14.26 17.79,11.18 30.14,27.12 37,45.82 -19.73,-7.17 -40.45,-8.12 -61.52,-4.2 33.71,5.33 63.52,19.61 84.2,43.06 16.68,18.92 25.46,41.47 26.99,65.33 -22.38,-16.52 -48.67,-24.8 -77.39,-26.47 28.84,16.63 51.23,39.88 62.82,68.35 9.87,24.25 12.56,45.27 6.62,62.03 -42.15,-43.42 -101.91,-60.79 -175,-59.99 0.15,8.55 0.49,17.18 1.05,25.87 l -0.04,0.01 c 3.43,42.16 -23.3,82.21 -65.56,94.05 -38.94,10.91 -79.06,-5.49 -99.98,-37.7 -13.04,5.96 -31.5,15.42 -43.11,25.94 3.81,-17.09 14.43,-34.65 26.85,-46.39 -12.69,3.98 -27.76,9.63 -38.43,16.68 7.04,-18.03 22.36,-35.46 38.02,-44.68 -26.5,-140.09 58.17,-279.63 198.01,-318.8 46.49,-13.02 93.54,-13.4 137.46,-3.21 -41.55,19.69 -73.56,47.1 -97.54,80.04"
         style="fill:#406fbf;fill-opacity:1;fill-rule:nonzero;stroke:none"
         id="path282" /><path
         d="m 1442.14,3211.89 c -24.8,0 -50,3.34 -75.05,10.36 -122.63,34.35 -202.84,145.89 -202.85,267.3 0,17.04 1.58,34.27 4.84,51.5 v 0 0 c -15.66,9.22 -30.98,26.65 -38.02,44.68 10.67,-7.05 25.74,-12.7 38.43,-16.68 v 0 0 c -12.42,11.74 -23.04,29.3 -26.85,46.39 11.61,-10.52 30.07,-19.98 43.11,-25.94 16.55,25.48 45.11,41.07 75.6,41.07 8.06,0 16.25,-1.09 24.38,-3.37 39.87,-11.16 65.91,-47.44 65.86,-86.91 -0.01,-2.37 -0.1,-4.75 -0.3,-7.14 v 0 0 l 0.04,-0.01 c -0.56,-8.69 -0.9,-17.32 -1.05,-25.87 v 0 0 c 1.6,-0.02 3.19,-0.03 4.78,-0.03 70.92,0 128.99,17.55 170.22,60.02 2.11,-5.96 3.13,-12.45 3.13,-19.44 -0.01,-10.39 -2.28,-21.87 -6.61,-34.28 -0.95,-2.73 -1.99,-5.5 -3.14,-8.31 0,-0.01 -0.01,-0.02 -0.01,-0.03 -11.6,-28.45 -33.98,-51.7 -62.81,-68.32 v 0 0 c 28.72,1.67 55.01,9.95 77.39,26.47 -1.53,-23.86 -10.31,-46.41 -26.99,-65.33 -20.68,-23.45 -50.49,-37.73 -84.2,-43.06 v 0 0 c 8.06,-1.5 16.06,-2.29 23.97,-2.28 12.8,0 25.36,2.05 37.55,6.48 -6.86,-18.7 -19.21,-34.64 -37,-45.82 -11.9,-7.46 -25.33,-12.05 -39.55,-14.26 v 0 0 c 23.98,-32.94 55.99,-60.35 97.54,-80.04 -20.26,-4.7 -41.18,-7.15 -62.41,-7.15"
         style="fill:#7da6dd;fill-opacity:1;fill-rule:nonzero;stroke:none"
         id="path284" /></g></g></svg>
