<svg width="900" height="700" viewBox="0 0 1345 1125" fill="none" xmlns="http://www.w3.org/2000/svg">
<g clip-path="url(#clip0_2_3)">
<path d="M0.124451 988.851H1508.2V988.097H0.124451V988.851Z" fill="#E7E8E5"/>
<path d="M992.068 1012.81H1091.97V1012.06H992.068V1012.81Z" fill="#E7E8E5"/>
<path d="M1330 1013.19H1205.91V1012.43H1330V1013.19Z" fill="#E7E8E5"/>
<path d="M1076.17 1032.89H1134.05V1032.14H1076.17V1032.89Z" fill="#E7E8E5"/>
<path d="M680.768 1027.19H524.933V1026.44H680.768V1027.19Z" fill="#E7E8E5"/>
<path d="M498.081 1027.19H394.358V1026.44H498.081V1027.19" fill="#E7E8E5"/>
<path d="M332.277 1014.46H191.009V1013.7H332.277V1014.46Z" fill="#E7E8E5"/>
<path d="M234.918 705.011H644.206V92.4231H234.918V705.011Z" fill="#E2E2E0"/>
<path d="M244.014 705.011H653.304V92.4231H244.014V705.011Z" fill="#F3F2F1"/>
<path d="M260.34 686.673H636.978V110.761H260.34V686.673Z" fill="white"/>
<path d="M630.1 686.673H636.977V110.761H630.1V686.673Z" fill="#E2E2E0"/>
<path d="M250.766 314.93H646.547V290.31H250.766V314.93Z" fill="#F3F2F1"/>
<path d="M671.099 62.0687H217.122C215.739 62.0687 214.608 63.2028 214.608 64.5812C214.608 65.9656 215.739 67.0967 217.122 67.0967H671.099C672.483 67.0967 673.614 65.9656 673.614 64.5812C673.614 63.2028 672.483 62.0687 671.099 62.0687Z" fill="#E2E2E0"/>
<path d="M686.179 64.5812C686.179 71.5243 680.554 77.1494 673.614 77.1494C666.674 77.1494 661.046 71.5243 661.046 64.5812C661.046 57.641 666.674 52.0159 673.614 52.0159C680.554 52.0159 686.179 57.641 686.179 64.5812Z" fill="#E2E2E0"/>
<path d="M238.311 78.6575C236.445 78.6575 234.918 77.1313 234.918 75.2643V67.9743C234.918 66.1103 236.445 64.5812 238.311 64.5812C240.179 64.5812 241.704 66.1103 241.704 67.9743V75.2643C241.704 77.1313 240.179 78.6575 238.311 78.6575Z" fill="#E2E2E0"/>
<path d="M633.195 78.6575C631.328 78.6575 629.802 77.1313 629.802 75.2643V67.9743C629.802 66.1103 631.328 64.5812 633.195 64.5812C635.062 64.5812 636.588 66.1103 636.588 67.9743V75.2643C636.588 77.1313 635.062 78.6575 633.195 78.6575Z" fill="#E2E2E0"/>
<path d="M670.296 642.049H653.303V92.423H459.169C461.166 88.4477 462.285 84.1587 462.569 79.719C455.818 84.7016 447.889 87.1991 439.227 87.7028C447.922 82.6899 454.672 75.6774 458.171 67.0964H629.919C629.841 67.377 629.802 67.6725 629.802 67.9741V75.2641C629.802 77.1311 631.328 78.6573 633.195 78.6573C635.062 78.6573 636.588 77.1311 636.588 75.2641V67.9741C636.588 67.6725 636.549 67.377 636.47 67.0964H661.299C662.243 71.7504 665.757 75.4692 670.296 76.7089V642.049ZM353.87 92.423H250.766V67.0964H351.409C351.321 68.6739 351.276 70.2483 351.276 71.8167C351.276 78.8443 352.169 85.7603 353.87 92.423" fill="#ECECEA"/>
<path d="M653.303 642.049H636.977V314.93H646.547V290.309H636.977V110.761H436.204C443.401 108.55 449.705 104.78 454.428 99.4235C456.352 97.2368 457.93 94.8903 459.169 92.423H644.207H653.303V642.049ZM260.34 642.049H250.766V314.93H260.34V642.049V642.049ZM260.34 290.309H250.766V285.83C251.611 284.937 252.377 283.978 253.052 282.953C255.251 279.599 256.292 275.898 256.292 272.125C256.292 271.585 256.27 271.042 256.229 270.502C254.589 272.119 252.758 273.446 250.766 274.508V271.6C253.751 268.424 255.977 264.768 257.193 260.733C257.888 258.429 258.222 256.124 258.219 253.853C258.217 250.93 257.661 248.065 256.613 245.323C255.065 248.119 253.095 250.562 250.766 252.677V92.423H353.87C355.501 98.8112 357.875 104.967 360.925 110.761H260.34V290.309Z" fill="#E6E6E4"/>
<path d="M630.1 642.049H260.34V314.93H371.605C388.896 343.619 420.318 362.03 454.823 362.03C459.715 362.03 464.668 361.662 469.653 360.899C486.369 358.338 501.435 351.667 513.973 342.069C497.879 341.792 483.669 337.738 471.264 330.695C475.511 327.933 479.124 324.482 481.854 320.362C483.015 318.607 483.98 316.791 484.752 314.93H630.1V642.049ZM455.773 511.362C467.814 528.274 487.06 537.603 506.779 537.603C517.568 537.603 528.501 534.81 538.47 528.934C547.838 523.412 555.239 515.829 560.436 507.1C553.433 509.764 546.547 510.982 539.833 510.982C537.266 510.982 534.727 510.804 532.211 510.46C534.072 507.806 535.423 504.908 536.066 501.81C536.358 500.399 536.5 498.999 536.503 497.621C536.503 494.481 535.764 491.453 534.398 488.648C532.483 492.976 529.403 496.487 525.479 499.301C529.427 493.633 531.711 487.348 531.708 481.041C531.708 480.329 531.677 479.614 531.62 478.903C531.15 473.238 528.854 468.295 525.217 464.323C524.411 470.536 521.655 476.101 517.444 481.026C518.189 478.013 518.575 475 518.575 472.056C518.572 467.891 517.791 463.861 516.138 460.154C513.74 454.767 510.745 451.048 507.093 449.402C507.111 449.878 507.12 450.358 507.12 450.834C507.108 463.897 500.665 475.856 489.536 487.194C488.17 485.837 486.821 484.434 485.494 482.986L485.488 482.989C481.573 478.568 475.981 476.155 470.269 476.155C466.764 476.155 463.217 477.06 459.978 478.969C453.556 482.754 449.979 489.519 449.973 496.472C449.97 498.013 450.145 499.566 450.504 501.095C447.5 502.287 443.081 503.807 439.561 504.051C442.671 505.939 446.746 506.95 450.374 506.95C450.682 506.95 450.987 506.944 451.288 506.929C448.661 508.37 445.392 509.936 442.584 510.569C444.969 511.558 447.777 512.041 450.489 512.041C452.35 512.041 454.169 511.815 455.773 511.362V511.362ZM630.1 290.309H486.493C487.349 288.506 488.079 286.645 488.667 284.729C489.807 281.001 490.359 277.27 490.362 273.591C490.365 268.937 489.497 264.364 487.844 259.988C483.096 268.484 475.912 274.918 466.999 279.596C473.448 270.611 477.173 260.558 477.179 250.366C477.179 249.82 477.17 249.275 477.149 248.729C476.796 239.569 474.621 232.472 470.305 227.984C463.123 247.926 446.571 262.096 423.135 272.393C421.944 269.646 420.813 266.844 419.736 263.987L419.721 263.99C415.257 251.531 403.359 243.082 390.039 243.082C388.45 243.082 386.842 243.203 385.223 243.45C371.228 245.595 360.792 256.619 358.771 269.917C353.749 269.902 346.492 269.546 341.268 267.866C344.939 272.743 350.826 276.833 356.458 278.797C353.656 279.134 350.492 279.403 347.454 279.403C345.497 279.403 343.591 279.291 341.869 279.017C346.718 283.752 354.123 287.112 360.451 287.794C360.656 288.638 360.87 289.474 361.096 290.309H260.34V110.761H360.924C371.27 130.436 389.37 145.972 412.458 152.438C420.014 154.556 427.614 155.563 435.094 155.563C441.498 155.563 447.808 154.824 453.918 153.406C441.386 147.468 431.731 139.2 424.499 129.265C428.788 128.599 432.838 127.214 436.428 124.964C441.793 121.592 445.518 116.784 447.587 111.144C443.911 112.48 440.122 113.099 436.262 113.099C433.876 113.102 431.463 112.863 429.032 112.411C431.499 112.022 433.897 111.473 436.204 110.761H636.977H630.1V290.309" fill="#ECECEA"/>
<path d="M636.977 642.049H630.1V314.93H636.977V642.049ZM636.977 290.309H630.1V110.761H636.977V290.309Z" fill="#DDDEDB"/>
<path d="M646.547 314.93H484.752C486.363 311.048 487.138 306.976 487.135 302.841C487.132 302.03 487.102 301.216 487.041 300.401C481.805 305.517 475.366 308.801 468.115 310.599C476.241 305.239 482.665 298.344 486.493 290.309H630.1H636.977H646.547V314.93V314.93ZM371.605 314.93H260.34H250.766V307.188C259.102 305.125 266.658 301.379 273.122 296.387C264.885 296.281 257.453 294.556 250.766 291.531V290.309H260.34H361.096C363.488 299.129 367.056 307.384 371.605 314.93" fill="#E6E6E4"/>
<path d="M661.299 67.0967H636.47C636.081 65.655 634.757 64.5812 633.195 64.5812H661.046C661.046 65.4438 661.133 66.2853 661.299 67.0967ZM629.919 67.0967H458.171C458.171 67.0937 458.174 67.0906 458.174 67.0876C458.521 66.2401 458.835 65.4046 459.121 64.5812H633.195C631.632 64.5812 630.308 65.655 629.919 67.0967ZM351.409 67.0967H250.766V64.5812H351.59C351.517 65.4227 351.457 66.2582 351.409 67.0967V67.0967ZM408.83 66.4814C408.35 66.4814 407.871 66.4783 407.388 66.4723C407.397 65.845 407.412 65.2146 407.43 64.5812H429.135C422.84 65.8781 416.057 66.4814 408.83 66.4814" fill="#DDDEDB"/>
<path d="M670.296 76.7091C665.757 75.4695 662.243 71.7506 661.299 67.0967C661.133 66.2854 661.046 65.4438 661.046 64.5812H670.296V76.7091Z" fill="#DDDEDB"/>
<path d="M633.195 78.6575C631.328 78.6575 629.802 77.1313 629.802 75.2643V67.9743C629.802 67.6727 629.841 67.3771 629.919 67.0966C630.308 65.6549 631.632 64.5812 633.195 64.5812C634.757 64.5812 636.081 65.6549 636.47 67.0966C636.549 67.3771 636.588 67.6727 636.588 67.9743V75.2643C636.588 77.1313 635.062 78.6575 633.195 78.6575Z" fill="#DDDEDB"/>
<path d="M291.299 64.5812C291.299 71.5243 285.672 77.1494 278.73 77.1494C271.791 77.1494 266.164 71.5243 266.164 64.5812C266.164 57.641 271.791 52.0159 278.73 52.0159C285.672 52.0159 291.299 57.641 291.299 64.5812Z" fill="#E2E2E0"/>
<path d="M296.831 976.37H216.047V797.253H296.831V976.37Z" fill="#EDEDEB"/>
<path d="M629.962 976.37H231.557V987.72H629.962V976.37Z" fill="#EDEDEB"/>
<path d="M296.831 976.37H645.473V797.253H296.831V976.37Z" fill="#F3F2F1"/>
<path d="M328.594 878.043H613.71V819.301H328.594V878.043Z" fill="#EDEDEB"/>
<path d="M328.594 954.322H613.71V895.579H328.594V954.322Z" fill="#EDEDEB"/>
<path d="M507.479 852.699H434.826C432.869 852.699 431.264 851.097 431.264 849.143V848.202C431.264 846.244 432.869 844.647 434.826 844.647H507.479C509.436 844.647 511.041 846.244 511.041 848.202V849.143C511.041 851.097 509.436 852.699 507.479 852.699Z" fill="#F3F2F1"/>
<path d="M507.479 928.977H434.826C432.869 928.977 431.264 927.376 431.264 925.421V924.48C431.264 922.523 432.869 920.921 434.826 920.921H507.479C509.436 920.921 511.041 922.523 511.041 924.48V925.421C511.041 927.376 509.436 928.977 507.479 928.977Z" fill="#F3F2F1"/>
<path d="M489.005 767.095C489.005 767.095 489.976 797.253 527.204 797.253C564.433 797.253 565.404 767.095 565.404 767.095H489.005" fill="#EDEDEB"/>
<path d="M401.92 767.095C401.92 767.095 402.891 797.253 440.119 797.253C477.348 797.253 478.319 767.095 478.319 767.095H401.92" fill="#EDEDEB"/>
<path d="M489.005 747.113C489.005 747.113 489.976 777.271 527.204 777.271C564.433 777.271 565.404 747.113 565.404 747.113H489.005" fill="#EDEDEB"/>
<path d="M401.92 747.113C401.92 747.113 402.891 777.271 440.119 777.271C477.348 777.271 478.319 747.113 478.319 747.113H401.92" fill="#EDEDEB"/>
<path d="M314.832 767.095C314.832 767.095 315.806 797.253 353.031 797.253C390.263 797.253 391.231 767.095 391.231 767.095H314.832" fill="#EDEDEB"/>
<path d="M314.832 747.113C314.832 747.113 315.806 777.271 353.031 777.271C390.263 777.271 391.231 747.113 391.231 747.113H314.832" fill="#EDEDEB"/>
<path d="M861.363 988.097H992.316V168.18H861.363V988.097Z" fill="#E2E2E0"/>
<path d="M992.315 988.097H1222.67V168.18H992.315V988.097Z" fill="#F3F2F1"/>
<path d="M1004.38 988.097H1210.61V180.244H1004.38V988.097Z" fill="#E2E2E0"/>
<path d="M1004.38 988.097H1056.45V180.244H1004.38V988.097Z" fill="#DADBD8"/>
<path d="M1004.38 844.109H1217.14V832.045H1004.38V844.109Z" fill="#F3F2F1"/>
<path d="M1004.38 674.837H1217.14V662.773H1004.38V674.837Z" fill="#F3F2F1"/>
<path d="M1004.38 505.565H1217.14V493.501H1004.38V505.565Z" fill="#F3F2F1"/>
<path d="M1004.38 336.293H1217.14V324.229H1004.38V336.293Z" fill="#F3F2F1"/>
<path d="M1017.39 782.173C1017.39 782.173 1018.05 832.524 1043.6 832.524C1069.15 832.524 1069.81 782.173 1069.81 782.173H1017.39" fill="#EDEDEB"/>
<path d="M1074.19 782.173C1074.19 782.173 1074.85 832.524 1100.4 832.524C1125.95 832.524 1126.61 782.173 1126.61 782.173H1074.19" fill="#EDEDEB"/>
<path d="M1130.99 782.173C1130.99 782.173 1131.65 832.524 1157.2 832.524C1182.75 832.524 1183.42 782.173 1183.42 782.173H1130.99Z" fill="#EDEDEB"/>
<path d="M1030.41 438.248C1030.41 438.248 1032.19 493.501 1100.4 493.501C1168.61 493.501 1170.39 438.248 1170.39 438.248H1030.41Z" fill="#EDEDEB"/>
<path d="M1030.41 401.638C1030.41 401.638 1032.19 456.891 1100.4 456.891C1168.61 456.891 1170.39 401.638 1170.39 401.638H1030.41Z" fill="#EDEDEB"/>
<path d="M1040.64 662.773H1174.35V529.057H1040.64V662.773Z" fill="#FAFAF9"/>
<path d="M1078.5 569.661H1136.48V548.16H1078.5V569.661Z" fill="#EDEDEB"/>
<path d="M1004.38 662.773H1040.64V529.057H1004.38V662.773Z" fill="#E7E8E5"/>
<path d="M1040.64 987.78H1174.35V866.92H1040.64V987.78Z" fill="#FAFAF9"/>
<path d="M1078.5 905.422H1136.48V883.917H1078.5V905.422Z" fill="#EDEDEB"/>
<path d="M1004.38 866.92H1040.63V987.78H1004.38V866.92" fill="#E7E8E5"/>
<path d="M1059.8 324.229H1153.3V209.232H1059.8V324.229Z" fill="#FAFAF9"/>
<path d="M1163.73 209.232H1144.88C1142.31 209.232 1140.23 211.313 1140.23 213.88V319.581C1140.23 322.148 1142.31 324.229 1144.88 324.229H1163.73C1166.3 324.229 1168.38 322.148 1168.38 319.581V213.88C1168.38 211.313 1166.3 209.232 1163.73 209.232Z" fill="#EDEDEB"/>
<path d="M1028.32 324.229H1121.82V209.232H1028.32V324.229Z" fill="#FAFAF9"/>
<path d="M1132.25 209.232H1113.4C1110.83 209.232 1108.75 211.313 1108.75 213.88V319.581C1108.75 322.148 1110.83 324.229 1113.4 324.229H1132.25C1134.82 324.229 1136.9 322.148 1136.9 319.581V213.88C1136.9 211.313 1134.82 209.232 1132.25 209.232Z" fill="#EDEDEB"/>
<path d="M1004.38 209.232H1085.06L1078.65 324.229H1004.38V209.232Z" fill="#FAFAF9"/>
<path d="M1095.49 209.232H1076.64C1074.08 209.232 1071.88 211.313 1071.74 213.88L1065.84 319.581C1065.69 322.148 1067.66 324.229 1070.23 324.229H1089.08C1091.65 324.229 1093.84 322.148 1093.99 319.581L1099.89 213.88C1100.03 211.313 1098.06 209.232 1095.49 209.232Z" fill="#EDEDEB"/>
<path d="M1338.96 1090.16C1338.96 1109.02 1077.14 1124.31 754.16 1124.31C431.186 1124.31 169.363 1109.02 169.363 1090.16C169.363 1071.3 431.186 1056.01 754.16 1056.01C1077.14 1056.01 1338.96 1071.3 1338.96 1090.16Z" fill="#F3F2F1"/>
<path d="M936.326 1035.94L914.447 1029.78L922.898 977.462L944.781 983.627L936.326 1035.94Z" fill="#F9A8B3"/>
<path d="M1120.51 1066.95H1097.77L1092.11 1014.3H1114.85L1120.51 1066.95Z" fill="#F9A8B3"/>
<path d="M1095.9 1064.31H1123.62C1124.55 1064.31 1125.35 1064.96 1125.56 1065.87L1130.05 1086.08C1130.51 1088.17 1128.86 1090.16 1126.72 1090.12C1117.8 1089.97 1111.29 1089.44 1100.06 1089.44C1093.15 1089.44 1072.31 1090.16 1062.77 1090.16C1053.44 1090.16 1051.98 1080.73 1055.89 1079.87C1073.4 1076.04 1086.61 1070.75 1092.21 1065.71C1093.22 1064.8 1094.54 1064.31 1095.9 1064.31" fill="#17282F"/>
<path d="M915.313 1027.29L939.21 1034.02C940.105 1034.27 940.706 1035.11 940.651 1036.04L939.496 1056.71C939.376 1058.85 937.306 1060.33 935.252 1059.71C926.672 1057.14 914.357 1053.12 903.523 1050.07C890.852 1046.5 890.903 1046.17 876.049 1041.98C867.064 1039.45 867.13 1029.67 871.12 1029.9C889.296 1030.98 892.2 1032.46 909.561 1027.51C911.446 1026.97 913.425 1026.75 915.313 1027.29Z" fill="#17282F"/>
<path d="M1068.42 370.119C1060.74 382.845 1052.72 394.972 1044.23 407.013C1035.72 419.002 1026.91 430.822 1017.34 442.29L1015.56 444.446L1014.84 445.294L1013.91 446.349C1013.27 447.043 1012.54 447.716 1011.83 448.37C1008.88 450.979 1005.2 452.979 1001.61 454.083C994.275 456.261 988.159 455.386 983.209 454.258C973.301 451.76 966.267 447.366 959.511 443.002C946.298 433.902 935.584 423.587 925.528 411.938L937.15 399.436C942.832 403.204 948.825 407.176 954.77 410.671C960.712 414.231 966.681 417.606 972.601 420.329C978.383 423.11 984.521 425.236 988.837 425.683C990.949 425.927 992.327 425.454 991.899 425.291C991.739 425.239 991.268 425.408 990.988 425.568L990.81 425.653L990.746 425.671L990.728 425.686L990.882 425.46L992.378 423.291C1000.35 411.712 1008.16 399.801 1015.91 387.839L1039.14 351.953L1068.42 370.119" fill="#F9A8B3"/>
<path d="M1053.03 342.775C1039.83 347.824 1033.52 356.251 1011.79 385.001L1047.09 425.249C1052.31 419.455 1067.71 400.07 1074.97 392.279C1087.25 379.141 1078.32 333.072 1053.03 342.775Z" fill="#17282F"/>
<path d="M940.359 405.082L931.552 382.516L912.93 401.186C912.93 401.186 917.017 411.042 928.068 414.143L940.359 405.082" fill="#F9A8B3"/>
<path d="M921.273 368.177L906.843 385.297L912.93 401.186L931.552 382.516L921.273 368.177" fill="#F9A8B3"/>
<path d="M940.431 1010.61L940.422 1010.61L941.267 1005.38L941.279 1005.38L940.431 1010.61Z" fill="#C3C5C2"/>
<path d="M940.422 1010.61L918.54 1004.44L919.385 999.22L941.267 1005.38L940.422 1010.61Z" fill="#D8898C"/>
<path d="M1117.78 1041.45H1117.77L1117.2 1036.2H1117.21L1117.78 1041.45Z" fill="#C3C5C2"/>
<path d="M1117.77 1041.45H1095.04L1094.47 1036.2H1117.2L1117.77 1041.45Z" fill="#D8898C"/>
<path d="M1181.8 363.593C1172.01 387.77 1164.7 412.689 1159.07 436.285C1154.95 453.552 1151.79 470.114 1149.28 485.173C1143.41 520.471 1141.13 547.635 1139.04 556.686C1121.51 553.471 1055.46 541.337 1019.45 534.704C1039.47 357.114 1056.33 341.671 1056.33 341.671C1056.33 341.671 1069.97 340.513 1085.59 341.355C1087.64 341.454 1089.73 341.617 1091.84 341.813C1105.53 343.062 1127.55 347.619 1142.69 351.157C1145.87 351.902 1149.08 352.744 1152.19 353.612C1168.04 358.058 1181.8 363.593 1181.8 363.593Z" fill="#17282F"/>
<path d="M1158.6 438.248H1158.6C1158.75 437.597 1158.91 436.942 1159.07 436.285C1159.58 434.113 1160.11 431.929 1160.66 429.736C1160.11 431.935 1159.58 434.119 1159.07 436.297C1158.91 436.948 1158.75 437.6 1158.6 438.248" fill="#ACAFAD"/>
<path d="M1156.73 446.588C1156.72 446.576 1156.72 446.564 1156.71 446.552C1157.32 443.807 1157.95 441.038 1158.6 438.248H1158.6C1157.95 441.047 1157.32 443.828 1156.73 446.588" fill="#B6B8B6"/>
<path d="M1160.66 429.736C1160.75 429.399 1160.83 429.061 1160.92 428.723C1160.83 429.061 1160.75 429.399 1160.66 429.736ZM1161.83 425.149C1161.83 425.119 1161.84 425.092 1161.85 425.061C1161.84 425.092 1161.83 425.119 1161.83 425.149Z" fill="#B6B8B6"/>
<path d="M1168.45 401.638H1168.42C1168.94 399.922 1169.47 398.206 1170.02 396.487L1170.07 396.496C1169.52 398.212 1168.98 399.925 1168.45 401.638" fill="#ACAFAD"/>
<path d="M1161.88 424.938C1163.87 417.253 1166.04 409.462 1168.42 401.638H1168.45C1166.04 409.465 1163.87 417.253 1161.88 424.938Z" fill="#B6B8B6"/>
<path d="M1156.71 446.552C1148.99 430.539 1145.35 412.849 1147.69 392.671L1170.02 396.487C1169.47 398.206 1168.94 399.922 1168.42 401.638C1166.04 409.462 1163.87 417.253 1161.88 424.938C1161.87 424.98 1161.86 425.019 1161.85 425.061C1161.84 425.092 1161.83 425.119 1161.83 425.149C1161.52 426.343 1161.22 427.535 1160.92 428.723C1160.83 429.061 1160.75 429.399 1160.66 429.737C1160.11 431.929 1159.58 434.113 1159.07 436.285C1158.91 436.942 1158.75 437.597 1158.6 438.248C1157.95 441.038 1157.32 443.807 1156.71 446.552" fill="#111D23"/>
<path d="M1148.17 292.985C1141.96 308.753 1133.24 338.136 1142.68 351.154C1132.7 358.251 1118.92 363.318 1100.62 359.539C1086.6 356.646 1087.7 346.678 1091.84 341.804C1110.89 340.806 1112.9 327.185 1112.06 313.89L1148.17 292.985Z" fill="#F9A8B3"/>
<path d="M1112 323.191C1111.99 323.191 1111.99 323.191 1111.99 323.191C1112.02 322.938 1112.04 322.685 1112.06 322.428C1112.04 322.685 1112.02 322.938 1112 323.191ZM1112.08 313.88L1115.38 311.971L1112.08 313.88Z" fill="#B6B8B6"/>
<path d="M1112.47 323.2C1112.32 323.2 1112.15 323.197 1112 323.191C1112.02 322.938 1112.04 322.685 1112.06 322.428C1112.32 319.656 1112.27 316.764 1112.08 313.881L1115.38 311.971L1133.45 301.517C1133.73 303.321 1133.24 306.847 1132.2 310.418C1130.17 317.415 1119.63 323.2 1112.47 323.2" fill="#D8898C"/>
<path d="M1109.22 229.389C1099.02 230.306 1091.85 257.448 1097.93 270.789C1104.01 284.129 1132.38 227.308 1109.22 229.389Z" fill="#17282F"/>
<path d="M1160.01 267.184C1153.87 288.898 1151.38 301.915 1137.8 310.792C1117.39 324.144 1092.42 308.156 1091.95 285.046C1091.53 264.247 1101.64 232.236 1125.08 228.168C1148.18 224.156 1166.15 245.474 1160.01 267.184" fill="#F9A8B3"/>
<path d="M1159.33 284.132C1147.88 292.041 1141.07 265.538 1149.44 249.785C1133.19 249.281 1093.85 252.608 1100.62 220.124C1105.29 197.714 1130.67 201.692 1141.57 209.652C1147.52 213.998 1155.68 207.975 1155.68 207.975C1155.68 207.975 1150.53 219.412 1140.06 216.188C1132.86 213.968 1127.61 216.857 1133.53 220.667C1142.14 226.216 1181.45 220.166 1177.59 239.895C1187.31 241.237 1173.4 274.414 1159.33 284.132Z" fill="#17282F"/>
<path d="M1175.53 243.221C1175.53 243.221 1173.27 232.526 1189.09 239.035C1185.08 238.872 1177.63 239.593 1175.53 243.221Z" fill="#17282F"/>
<path d="M1113.33 291.585H1113.35C1122.62 292.221 1127.3 286.162 1127.49 285.903L1127.38 285.091L1126.57 285.203C1126.52 285.26 1122.05 291.021 1113.43 290.427C1113.11 290.406 1112.83 290.647 1112.81 290.967C1112.79 291.283 1113.02 291.555 1113.33 291.585" fill="#17282F"/>
<path d="M1162.72 289.594C1159.66 294.855 1154.46 298.209 1149.61 299.412C1142.3 301.219 1138.88 294.634 1141.1 287.863C1143.09 281.768 1149.29 273.479 1156.53 274.683C1163.66 275.868 1166.22 283.58 1162.72 289.594" fill="#F9A8B3"/>
<path d="M911.763 997.078L948.819 1007.5C948.819 1007.5 984.156 881.277 1006.1 803.023C1011.92 782.275 1020.86 753.097 1031.53 722.121C1044.99 683.095 1061.1 641.071 1074.11 608.208C1087.83 573.597 1098.06 549.161 1098.06 549.161L1019.44 534.704C1019.44 534.704 955.871 715.628 942.196 783.654C927.965 854.382 911.763 997.078 911.763 997.078" fill="#406FBF"/>
<path d="M948.819 1007.5L941.267 1005.38L919.384 999.22L911.763 997.078C911.763 997.078 927.965 854.382 942.196 783.654C948.367 752.958 964.693 699.277 980.757 649.601L983.882 651.245C988.062 653.438 992.04 654.43 995.807 654.43C1030.84 654.436 1048.16 568.82 1048.22 568.551L1059.25 574.348C1059.42 574.436 1059.59 574.523 1059.76 574.611C1059.22 582.938 1058.62 592.557 1057.98 603.08C1041.66 632.608 1032.06 688.699 1031.53 722.121C1020.86 753.097 1011.92 782.275 1006.1 803.023C1005.53 805.035 1004.96 807.083 1004.38 809.152C1000.62 822.568 996.522 837.178 992.315 852.201C977.952 903.454 962.289 959.389 954.254 988.097C954.182 988.351 954.112 988.6 954.043 988.851C950.77 1000.53 948.819 1007.5 948.819 1007.5" fill="#6D97D6"/>
<path d="M1031.53 722.121C1032.06 688.699 1041.66 632.608 1057.98 603.08C1056.96 619.705 1055.85 638.571 1054.77 658.131C1054.19 659.675 1053.6 661.219 1053.02 662.773C1051.52 666.766 1050.01 670.793 1048.51 674.837C1042.67 690.563 1036.89 706.579 1031.53 722.121" fill="#557EC8"/>
<path d="M1061.86 542.504C1061.86 542.504 1048.58 737.498 1049.39 804.106C1050.28 877.045 1084.53 1036.2 1084.53 1036.2H1126.17C1126.17 1036.2 1113.14 894.554 1111.89 823.008C1110.47 742.004 1139.03 556.698 1139.03 556.698L1061.86 542.504" fill="#406FBF"/>
<path d="M1126.17 1036.2H1084.53C1084.53 1036.2 1057.4 910.151 1050.8 830.995C1049.99 821.208 1049.49 812.132 1049.39 804.106C1049.37 802.121 1049.35 800.022 1049.35 797.82C1049.35 744.736 1056.19 630.494 1059.76 574.611C1069.43 579.587 1079.81 581.949 1090.05 581.949C1108.03 581.949 1125.6 574.68 1138.29 561.536C1136.25 575.124 1130.28 615.718 1124.52 662.773C1124.03 666.754 1123.55 670.774 1123.07 674.837C1117.15 724.794 1111.84 779.871 1111.84 816.892C1111.84 818.991 1111.85 821.03 1111.89 823.008C1113.14 894.554 1126.17 1036.2 1126.17 1036.2" fill="#6D97D6"/>
<path d="M1079.55 1037.1H1128.58V1022.45L1073.77 1021.5L1079.55 1037.1Z" fill="#17282F"/>
<path d="M909.196 997.287L951.024 1009.07L957.144 994.665L909.461 981.156L909.196 997.287" fill="#17282F"/>
<path d="M1125.29 266.072C1124.9 267.866 1123.63 269.112 1122.46 268.856C1121.29 268.599 1120.66 266.943 1121.05 265.152C1121.44 263.357 1122.7 262.111 1123.88 262.368C1125.05 262.621 1125.68 264.28 1125.29 266.072Z" fill="#17282F"/>
<path d="M1105.04 261.665C1104.65 263.457 1103.38 264.702 1102.21 264.449C1101.04 264.193 1100.41 262.534 1100.8 260.742C1101.19 258.951 1102.45 257.705 1103.62 257.961C1104.79 258.215 1105.43 259.873 1105.04 261.665" fill="#17282F"/>
<path d="M1111.28 263.957C1111.28 263.957 1104.96 273.407 1099.39 277.418C1101.92 281.068 1107.94 280.489 1107.94 280.489L1111.28 263.957Z" fill="#F46878"/>
<path d="M1133.01 260.893C1132.61 260.881 1132.24 260.652 1132.06 260.269C1130.05 255.91 1126.13 255.295 1126.09 255.289C1125.5 255.201 1125.09 254.658 1125.18 254.067C1125.26 253.482 1125.79 253.06 1126.4 253.156C1126.61 253.19 1131.52 253.959 1134.02 259.367C1134.27 259.904 1134.03 260.546 1133.49 260.793L1133.01 260.893" fill="#17282F"/>
<path d="M1097.87 252.804L1097.25 252.574C1096.78 252.206 1096.7 251.528 1097.07 251.06C1100.75 246.379 1105.7 246.753 1105.92 246.783C1106.51 246.835 1106.95 247.356 1106.9 247.951C1106.84 248.542 1106.29 248.976 1105.73 248.928C1105.56 248.928 1101.71 248.65 1098.76 252.393C1098.54 252.674 1098.21 252.816 1097.87 252.804" fill="#17282F"/>
<path d="M1085.01 1063.58C1084.73 1063.58 1084.49 1063.62 1084.31 1063.72C1084.16 1063.79 1083.99 1063.93 1083.97 1064.35C1083.92 1065.21 1084.15 1065.85 1084.7 1066.3C1085.94 1067.35 1088.91 1067.49 1092.77 1066.72C1090.21 1065.23 1086.75 1063.58 1085.01 1063.58V1063.58ZM1088.39 1068.29C1086.66 1068.29 1085.04 1067.99 1084.01 1067.13C1083.19 1066.44 1082.82 1065.49 1082.89 1064.28C1082.95 1063.39 1083.43 1062.96 1083.82 1062.76C1086.34 1061.46 1093.67 1065.98 1094.49 1066.49L1094.74 1067.04L1094.33 1067.47C1092.76 1067.85 1090.49 1068.29 1088.39 1068.29Z" fill="#406FBF"/>
<path d="M1089.62 1058.27L1089.37 1058.28C1088.67 1058.37 1088.61 1058.69 1088.59 1058.83C1088.3 1060.33 1091.2 1064.09 1093.54 1065.87C1093.27 1063.95 1092.55 1060.13 1090.86 1058.74C1090.47 1058.43 1090.06 1058.27 1089.62 1058.27ZM1094.21 1067.49L1093.95 1067.42C1091.6 1066.15 1087.05 1061.16 1087.53 1058.63C1087.62 1058.17 1087.95 1057.37 1089.24 1057.22C1090.07 1057.12 1090.85 1057.35 1091.54 1057.91C1094.18 1060.07 1094.72 1066.63 1094.74 1066.91L1094.5 1067.4L1094.21 1067.49" fill="#406FBF"/>
<path d="M901.58 1022.8L901.429 1022.82L900.947 1023.28C900.696 1023.97 900.745 1024.57 901.101 1025.12C902.111 1026.69 905.655 1027.92 910.71 1028.48C907.673 1025.82 903.354 1022.61 901.58 1022.8V1022.8ZM912.33 1029.7L912.233 1029.7C908.508 1029.41 901.993 1028.5 900.196 1025.7C899.653 1024.86 899.565 1023.92 899.936 1022.91C900.154 1022.31 900.585 1021.92 901.179 1021.77C904.228 1021.08 911.793 1027.98 912.64 1028.77L912.767 1029.39L912.33 1029.7Z" fill="#406FBF"/>
<path d="M908.351 1019.2C907.932 1019.24 907.836 1019.45 907.796 1019.54C907.139 1020.95 909.648 1025.67 911.886 1028.05C912.091 1026.25 912.303 1022.5 910.9 1020.49C910.411 1019.79 909.781 1019.38 908.976 1019.24L908.351 1019.2ZM912.33 1029.7L911.932 1029.58C909.621 1027.65 905.724 1021.44 906.822 1019.08C907.079 1018.53 907.703 1017.92 909.16 1018.18C910.246 1018.37 911.129 1018.94 911.784 1019.87C913.922 1022.95 912.852 1029.01 912.803 1029.26L912.459 1029.67L912.33 1029.7Z" fill="#406FBF"/>
<path d="M1048.22 568.551L993.594 539.865C1001.11 572.747 969.667 592.702 943.58 603.349C931.111 608.437 933.868 624.977 948.355 632.587L983.882 651.245C1026.97 673.872 1048.22 568.551 1048.22 568.551Z" fill="#17282F"/>
<path d="M1059.25 574.349L959.246 521.828C926.78 504.778 914.17 464.268 931.22 431.806C948.267 399.34 988.78 386.729 1021.24 403.777L1121.25 456.297C1153.71 473.347 1166.33 513.857 1149.28 546.323C1132.23 578.785 1091.72 591.399 1059.25 574.349" fill="#406FBF"/>
<path d="M1090.05 581.949C1079.63 581.949 1069.08 579.506 1059.25 574.349L1048.22 568.551L1007.56 547.2C1011.17 542.48 1015.03 536.939 1018.99 530.82C1025.2 521.24 1031.68 510.255 1037.92 498.824L1037.91 498.818C1051.22 474.43 1063.42 448.063 1069.56 429.151L1121.25 456.297C1143.89 468.186 1156.87 491.48 1156.88 515.498C1156.88 525.927 1154.44 536.493 1149.28 546.323C1137.39 568.965 1114.08 581.949 1090.05 581.949" fill="#2D5BB2"/>
<path d="M1117.37 479.503L1089 464.603C1085.78 462.911 1084.52 458.891 1086.22 455.669C1087.91 452.448 1091.93 451.199 1095.15 452.888L1123.52 467.788C1126.74 469.48 1127.99 473.501 1126.3 476.722C1124.61 479.943 1120.59 481.195 1117.37 479.503Z" fill="white"/>
<path d="M1070.28 454.774L1056.12 447.336C1052.9 445.644 1051.65 441.626 1053.34 438.405C1055.03 435.181 1059.05 433.932 1062.27 435.621L1076.43 443.059C1079.65 444.751 1080.9 448.771 1079.21 451.99C1077.52 455.214 1073.5 456.463 1070.28 454.774Z" fill="white"/>
<path d="M777.391 489.767L987.263 563.325C1004.88 572.578 1088.93 412.542 1071.31 403.288L891.618 272.261L777.391 489.767" fill="#406FBF"/>
<path d="M1018.99 530.82C1025.2 521.234 1031.68 510.243 1037.91 498.818L1037.92 498.824C1031.68 510.256 1025.2 521.24 1018.99 530.82Z" fill="#244D9B"/>
<path d="M1010.89 542.706L801.996 468.69C811.738 455.992 823.29 438.32 835.264 417.597L1037.91 498.818C1031.68 510.243 1025.2 521.234 1018.99 530.82C1016.22 535.09 1013.51 539.081 1010.89 542.706Z" fill="#3563B7"/>
<path d="M850.722 389.531C819.179 449.595 786.348 494.472 777.39 489.767C768.433 485.062 786.741 432.56 818.283 372.496C849.826 312.433 882.66 267.556 891.618 272.261C900.573 276.963 882.265 329.468 850.722 389.531" fill="#17282F"/>
<path d="M1183.73 376.119C1186.25 379.883 1188.26 383.107 1190.31 386.669C1192.33 390.153 1194.28 393.664 1196.18 397.21C1199.95 404.317 1203.4 411.601 1206.52 419.102C1209.63 426.597 1212.45 434.291 1214.75 442.272C1217.08 450.237 1218.95 458.483 1219.98 467.101C1220.12 468.168 1220.21 469.269 1220.32 470.352L1220.48 471.981L1220.58 473.468C1220.59 474.038 1220.63 474.608 1220.61 475.178C1220.54 479.765 1219.2 484.178 1217.42 487.478C1213.76 494.173 1209.28 497.751 1205.25 500.737C1197.08 506.5 1189.19 509.559 1181.37 512.364C1165.67 517.636 1150.34 520.525 1134.36 522.13L1130.82 505.433C1144.57 500.275 1158.66 494.617 1171.15 488.162C1177.34 484.992 1183.28 481.285 1187.23 477.72C1189.17 476.016 1190.29 474.119 1190.09 473.968C1190.05 473.875 1189.65 474.484 1189.61 475.259L1189.58 475.54L1189.58 475.681L1189.59 475.751L1189.56 475.603L1189.34 474.397C1189.18 473.591 1189.06 472.795 1188.88 471.984C1186.18 459.038 1181.12 445.758 1175.16 432.816C1172.18 426.325 1168.9 419.907 1165.52 413.534C1163.83 410.349 1162.08 407.185 1160.28 404.072C1158.5 401.038 1156.58 397.714 1154.95 395.072L1183.73 376.119" fill="#F9A8B3"/>
<path d="M1205.25 390.527C1201.99 382.67 1196.72 375.199 1190.53 369.269C1178.9 358.133 1158.42 358.296 1149.22 372.152C1148.1 373.841 1147.18 375.66 1146.54 377.581C1143.91 385.469 1145.37 394.164 1148.19 401.786C1154.9 419.94 1162.34 437.959 1170.45 455.531L1170.5 455.645L1216.79 418.396C1212.94 409.106 1209.09 399.816 1205.25 390.527" fill="#17282F"/>
<path d="M1138.57 506.874L1118.82 494.934L1115.53 523.786C1115.53 523.786 1134.6 530.219 1139.14 520.495L1138.57 506.874" fill="#F9A8B3"/>
<path d="M1097.7 498.155L1098.96 519.832L1115.53 523.786L1118.82 494.933L1097.7 498.155" fill="#F9A8B3"/>
<path d="M673.674 252.966C680.856 251.703 687.585 249.175 693.524 245.26C702.367 239.433 708.411 231.265 711.66 221.767C701.836 225.583 691.461 226.301 680.847 224.588C697.722 221.514 712.516 213.956 722.651 201.936C730.842 192.218 735.017 180.76 735.523 168.719C724.442 177.288 711.304 181.752 696.863 182.916C711.198 174.221 722.201 162.247 727.718 147.784C732.42 135.457 733.545 124.835 730.363 116.459C709.609 138.805 679.698 148.222 642.861 148.632C642.837 144.322 642.919 139.97 643.106 135.581L643.088 135.578C644.339 114.296 630.435 94.4168 609.008 88.9244C589.271 83.8633 569.237 92.5679 559.055 109.033C552.419 106.177 543.015 101.61 537.049 96.4376C539.154 104.967 544.641 113.705 550.984 119.478C544.571 117.617 536.971 114.948 531.551 111.539C535.297 120.543 543.202 129.172 551.195 133.642C539.414 204.512 583.621 273.862 654.501 292.038C678.072 298.082 701.779 297.75 723.794 292.122C702.644 282.672 686.122 269.29 673.674 252.966" fill="#406FBF"/>
<path d="M337.245 425.08C338.457 423.179 339.287 421.116 339.634 418.948C340.152 415.715 339.555 412.629 338.065 409.905C336.886 412.943 334.88 415.455 332.274 417.518C335.097 413.03 336.467 408.078 335.842 403.258C335.339 399.361 333.598 396.016 330.959 393.386C330.597 397.702 328.872 401.629 326.121 405.164C327.132 400.079 326.7 395.069 324.556 390.792C322.728 387.146 320.541 384.669 317.969 383.647C318.729 393.045 314.627 401.828 307.026 410.313C306.04 409.417 305.066 408.491 304.103 407.532H304.097C299.508 402.802 292.072 401.819 286.346 405.556C281.069 408.998 278.869 415.386 280.495 421.143C278.458 422.06 275.452 423.249 273.028 423.529C275.411 424.832 278.549 425.405 281.19 425.164C279.426 426.238 277.229 427.414 275.32 427.936C278.156 428.964 281.773 428.964 284.462 428.078C298.156 445.565 323.199 449.972 342.146 437.612C348.447 433.501 353.324 428.029 356.639 421.834C350.066 424.681 343.567 425.653 337.245 425.08" fill="#406FBF"/>
<path d="M706.427 416.758C708.725 413.259 710.318 409.447 711.02 405.423C712.064 399.427 711.026 393.682 708.333 388.584C706.062 394.194 702.274 398.818 697.378 402.585C702.738 394.315 705.401 385.149 704.364 376.176C703.525 368.922 700.373 362.664 695.535 357.711C694.76 365.722 691.452 372.976 686.252 379.476C688.261 370.053 687.582 360.736 683.703 352.731C680.4 345.912 676.398 341.258 671.642 339.292C672.818 356.773 664.979 372.994 650.646 388.566C648.834 386.877 647.045 385.131 645.281 383.324L645.274 383.33C636.862 374.427 623.073 372.418 612.338 379.216C602.445 385.481 598.202 397.289 601.079 408.032C597.27 409.682 591.656 411.821 587.144 412.279C591.539 414.758 597.357 415.905 602.27 415.522C598.965 417.473 594.857 419.602 591.295 420.525C596.537 422.504 603.26 422.594 608.278 421.011C633.288 453.848 679.707 462.661 715.222 440.166C727.033 432.686 736.229 422.637 742.542 411.211C730.26 416.336 718.157 417.98 706.427 416.758" fill="#406FBF"/>
<path d="M471.264 330.695C475.511 327.933 479.124 324.482 481.854 320.362C485.916 314.227 487.554 307.36 487.041 300.401C481.805 305.517 475.366 308.801 468.115 310.599C478.065 304.036 485.464 295.171 488.667 284.729C491.255 276.284 490.803 267.821 487.844 259.988C483.096 268.485 475.912 274.918 466.999 279.596C473.792 270.131 477.562 259.478 477.149 248.729C476.796 239.569 474.621 232.472 470.305 227.984C463.123 247.926 446.571 262.096 423.135 272.393C421.944 269.646 420.813 266.844 419.736 263.987L419.721 263.99C414.723 250.044 400.415 241.125 385.223 243.45C371.228 245.595 360.792 256.619 358.771 269.917C353.749 269.902 346.492 269.546 341.268 267.866C344.939 272.743 350.826 276.833 356.458 278.797C351.849 279.355 346.263 279.72 341.868 279.017C346.718 283.752 354.123 287.112 360.451 287.794C372.232 336.309 419.389 368.593 469.653 360.899C486.369 358.338 501.435 351.667 513.973 342.069C497.879 341.792 483.669 337.738 471.264 330.695" fill="#406FBF"/>
<path d="M454.823 362.03C410.383 362.03 371.065 331.498 360.451 287.794C354.123 287.112 346.718 283.752 341.868 279.017C343.591 279.291 345.497 279.403 347.454 279.403C350.492 279.403 353.656 279.134 356.458 278.797C350.826 276.833 344.939 272.743 341.268 267.866C346.492 269.546 353.749 269.902 358.771 269.917C360.792 256.619 371.228 245.595 385.223 243.45C386.842 243.203 388.45 243.082 390.039 243.082C403.359 243.082 415.257 251.531 419.721 263.99L419.736 263.987C420.813 266.844 421.944 269.646 423.135 272.393C446.571 262.096 463.123 247.926 470.305 227.984C474.621 232.472 476.796 239.569 477.149 248.729C477.17 249.275 477.179 249.821 477.179 250.366C477.173 260.558 473.448 270.611 466.999 279.596C475.912 274.918 483.096 268.484 487.844 259.988C489.497 264.364 490.365 268.937 490.362 273.591C490.359 277.27 489.807 281.001 488.667 284.729C485.464 295.171 478.065 304.036 468.115 310.599C475.366 308.801 481.805 305.517 487.041 300.401C487.102 301.216 487.132 302.03 487.135 302.841C487.138 306.976 486.363 311.048 484.752 314.93C483.98 316.791 483.015 318.607 481.854 320.362C479.124 324.482 475.511 327.933 471.264 330.695C483.669 337.738 497.879 341.792 513.973 342.069C501.435 351.667 486.369 358.338 469.653 360.899C464.668 361.662 459.715 362.03 454.823 362.03Z" fill="#2D5BB2"/>
<path d="M813.087 292.146C815.258 291.576 817.261 290.632 818.983 289.281C821.55 287.269 823.2 284.609 823.96 281.611C821.04 283.031 817.873 283.511 814.571 283.255C819.674 281.885 824.026 279.192 826.831 275.25C829.102 272.059 830.095 268.436 829.944 264.729C826.762 267.637 822.841 269.338 818.437 270.059C822.618 267.031 825.694 263.077 827.021 258.498C828.155 254.595 828.234 251.308 827.045 248.816C821.236 256.2 812.293 259.843 800.998 260.899C800.883 259.575 800.796 258.239 800.745 256.887L800.738 256.884C800.588 250.321 795.816 244.569 789.102 243.423C782.916 242.368 776.986 245.547 774.275 250.855C772.167 250.146 769.166 248.982 767.205 247.543C768.065 250.11 769.968 252.656 772.064 254.266C770.046 253.856 767.645 253.229 765.896 252.318C767.274 254.987 769.917 257.436 772.483 258.607C770.652 280.658 785.972 300.83 808.185 304.621C815.572 305.882 822.841 305.185 829.455 302.902C822.726 300.534 817.318 296.842 813.087 292.146" fill="#406FBF"/>
<path d="M815.49 305.242C813.081 305.242 810.641 305.04 808.185 304.621C787.187 301.038 772.351 282.814 772.335 262.205C772.335 261.013 772.384 259.813 772.483 258.607C771.111 257.982 769.714 256.987 768.502 255.79C768.243 255.533 767.989 255.268 767.748 254.993C767.015 254.158 766.379 253.253 765.896 252.318C767.645 253.229 770.046 253.856 772.064 254.266C770.722 253.235 769.461 251.823 768.502 250.267C768.224 249.818 767.971 249.353 767.748 248.886C767.537 248.442 767.356 247.993 767.205 247.543C769.166 248.982 772.167 250.146 774.275 250.855C776.636 246.228 781.441 243.224 786.729 243.224C787.513 243.224 788.306 243.288 789.102 243.423C795.816 244.569 800.588 250.321 800.738 256.884L800.745 256.887C800.796 258.239 800.883 259.575 800.998 260.899C812.293 259.843 821.236 256.2 827.045 248.816C827.624 250.032 827.902 251.44 827.905 253.015C827.905 254.664 827.6 256.501 827.021 258.498C825.694 263.076 822.618 267.031 818.437 270.059C822.841 269.338 826.762 267.637 829.944 264.729C829.956 264.974 829.959 265.221 829.959 265.465C829.956 268.916 828.951 272.27 826.831 275.25C824.026 279.192 819.674 281.885 814.571 283.255C815.135 283.297 815.696 283.321 816.251 283.321C818.947 283.321 821.538 282.79 823.96 281.611C823.2 284.609 821.55 287.269 818.983 289.281C817.261 290.632 815.258 291.576 813.087 292.146C817.318 296.842 822.726 300.534 829.455 302.902C825.04 304.425 820.331 305.242 815.49 305.242Z" fill="#2D5BB2"/>
<path d="M532.211 510.461C534.072 507.806 535.423 504.908 536.066 501.81C537.028 497.175 536.365 492.68 534.398 488.648C532.483 492.976 529.403 496.487 525.479 499.301C529.874 492.991 532.205 485.921 531.62 478.903C531.15 473.238 528.854 468.295 525.217 464.323C524.412 470.536 521.655 476.101 517.444 481.026C519.242 473.745 518.958 466.479 516.138 460.154C513.74 454.768 510.745 451.049 507.093 449.402C507.572 463.026 501.07 475.443 489.536 487.194C488.17 485.837 486.821 484.434 485.494 482.987L485.488 482.99C479.172 475.856 468.495 473.95 459.978 478.969C452.13 483.593 448.531 492.671 450.504 501.095C447.5 502.287 443.081 503.807 439.561 504.051C442.933 506.099 447.446 507.116 451.288 506.929C448.661 508.37 445.392 509.936 442.584 510.569C446.61 512.237 451.831 512.469 455.773 511.362C474.401 537.527 510.284 545.544 538.47 528.934C547.838 523.412 555.24 515.829 560.436 507.101C550.755 510.78 541.308 511.706 532.211 510.461" fill="#406FBF"/>
<path d="M506.779 537.603C487.06 537.603 467.814 528.274 455.773 511.362C454.169 511.815 452.35 512.041 450.489 512.041C447.777 512.041 444.969 511.559 442.584 510.569C445.392 509.936 448.661 508.37 451.288 506.929C450.987 506.944 450.682 506.95 450.374 506.95C446.746 506.95 442.671 505.939 439.561 504.051C443.081 503.807 447.5 502.287 450.504 501.095C450.145 499.566 449.97 498.013 449.973 496.472C449.979 489.52 453.556 482.754 459.978 478.969C463.217 477.06 466.764 476.155 470.269 476.155C475.981 476.155 481.573 478.568 485.488 482.99L485.494 482.987C486.821 484.434 488.17 485.837 489.536 487.194C500.665 475.856 507.108 463.897 507.12 450.835C507.12 450.358 507.111 449.878 507.093 449.402C510.745 451.049 513.74 454.768 516.138 460.154C517.791 463.861 518.572 467.891 518.575 472.056C518.575 475 518.189 478.013 517.444 481.026C521.655 476.101 524.412 470.536 525.217 464.323C528.854 468.295 531.15 473.238 531.62 478.903C531.677 479.615 531.708 480.329 531.708 481.041C531.711 487.348 529.427 493.634 525.479 499.301C529.403 496.487 532.483 492.976 534.398 488.648C535.764 491.453 536.503 494.481 536.503 497.621C536.5 498.999 536.358 500.399 536.066 501.81C535.423 504.908 534.072 507.806 532.211 510.461C534.727 510.804 537.266 510.982 539.833 510.982C546.547 510.982 553.433 509.764 560.436 507.101C555.24 515.829 547.838 523.412 538.47 528.935C528.501 534.81 517.568 537.603 506.779 537.603" fill="#7DA6DD"/>
<path d="M246.502 289.374C249.125 287.643 251.37 285.514 253.052 282.953C255.566 279.119 256.566 274.834 256.229 270.502C252.966 273.718 248.945 275.787 244.407 276.924C250.609 272.804 255.224 267.266 257.193 260.733C258.782 255.467 258.476 250.195 256.613 245.324C253.675 250.635 249.213 254.665 243.667 257.605C247.878 251.688 250.205 245.04 249.917 238.341C249.67 232.635 248.295 228.219 245.594 225.435C241.178 237.88 230.905 246.753 216.336 253.238C215.587 251.528 214.871 249.784 214.193 248.008L214.183 248.011C211.032 239.337 202.093 233.823 192.635 235.316C183.919 236.691 177.451 243.586 176.231 251.878C173.101 251.881 168.581 251.682 165.322 250.65C167.632 253.693 171.333 256.212 174.862 257.409C171.985 257.774 168.482 258.022 165.726 257.593C168.76 260.528 173.382 262.594 177.325 263.001C184.8 293.196 214.272 313.178 245.569 308.24C255.972 306.6 265.339 302.398 273.122 296.387C263.091 296.257 254.254 293.73 246.502 289.374" fill="#406FBF"/>
<path d="M236.056 308.988C208.481 308.988 184.036 290.11 177.325 263.001C173.382 262.594 168.76 260.528 165.726 257.593C166.759 257.753 167.897 257.819 169.067 257.819C171.02 257.819 173.064 257.638 174.862 257.409C171.333 256.212 167.632 253.693 165.322 250.65C168.557 251.673 173.035 251.878 176.161 251.878C176.184 251.878 176.207 251.878 176.231 251.878C177.451 243.586 183.919 236.691 192.635 235.316C193.674 235.15 194.706 235.072 195.725 235.072C203.986 235.072 211.378 240.29 214.183 248.011L214.193 248.008C214.871 249.784 215.587 251.528 216.336 253.238C230.905 246.753 241.178 237.88 245.594 225.435C248.295 228.219 249.67 232.635 249.917 238.341C249.932 238.706 249.94 239.074 249.94 239.439C249.945 245.58 247.781 251.645 244.014 257.111C243.899 257.277 243.784 257.442 243.667 257.605C249.213 254.664 253.675 250.635 256.613 245.324C257.661 248.065 258.217 250.931 258.219 253.853C258.222 256.124 257.888 258.429 257.193 260.733C255.977 264.769 253.751 268.424 250.766 271.6C248.917 273.567 246.779 275.349 244.407 276.924C248.945 275.787 252.966 273.717 256.229 270.502C256.27 271.042 256.292 271.585 256.292 272.125C256.292 275.898 255.251 279.599 253.052 282.953C252.377 283.978 251.611 284.938 250.766 285.83C249.506 287.16 248.073 288.34 246.502 289.374C254.254 293.73 263.091 296.257 273.122 296.387C266.658 301.379 259.102 305.125 250.766 307.188C249.065 307.61 247.333 307.963 245.569 308.24C245.049 308.322 244.532 308.397 244.014 308.466C241.342 308.816 238.685 308.988 236.056 308.988" fill="#7DA6DD"/>
<path d="M424.499 129.265C428.788 128.599 432.838 127.214 436.428 124.964C441.793 121.592 445.518 116.785 447.587 111.144C441.636 113.307 435.387 113.593 429.032 112.411C439.199 110.804 448.191 106.496 454.428 99.4236C459.459 93.7171 462.107 86.9156 462.568 79.7191C455.818 84.7018 447.889 87.1992 439.227 87.7029C447.925 82.6871 454.678 75.6745 458.174 67.0875C461.151 59.7734 461.962 53.4335 460.171 48.3784C447.458 61.4745 429.433 66.7135 407.388 66.4722C407.433 63.8934 407.536 61.2905 407.705 58.6695L407.693 58.6665C408.727 45.9504 400.665 33.8708 387.919 30.2997C376.174 27.009 364.073 31.9555 357.764 41.6705C353.83 39.8729 348.263 37.0196 344.761 33.8466C345.91 39.0012 349.113 44.2975 352.859 47.8385C349.032 46.6381 344.487 44.934 341.268 42.8076C343.392 48.2457 348.012 53.5028 352.736 56.2837C344.743 98.5368 370.281 140.624 412.458 152.438C426.48 156.365 440.671 156.48 453.918 153.407C441.386 147.468 431.731 139.2 424.499 129.265" fill="#406FBF"/>
<path d="M435.094 155.563C427.614 155.563 420.014 154.556 412.458 152.438C375.471 142.078 351.279 108.436 351.276 71.8168C351.276 66.6773 351.752 61.4805 352.736 56.2837C348.012 53.5028 343.392 48.2457 341.268 42.8076C344.487 44.934 349.032 46.6381 352.859 47.8385C349.113 44.2975 345.91 39.0012 344.761 33.8466C348.263 37.0196 353.83 39.8729 357.764 41.6705C362.755 33.9854 371.369 29.2832 380.566 29.2832C382.997 29.2832 385.467 29.612 387.919 30.2997C399.944 33.6657 407.798 44.6082 407.783 56.5129C407.78 57.2278 407.753 57.9456 407.693 58.6665L407.705 58.6695C407.536 61.2905 407.433 63.8934 407.388 66.4722C407.871 66.4783 408.35 66.4813 408.83 66.4813C430.22 66.4813 447.735 61.188 460.171 48.3784C460.807 50.176 461.115 52.1335 461.115 54.2418C461.112 57.3755 460.427 60.8381 459.121 64.5811C458.835 65.4045 458.521 66.24 458.174 67.0875C458.174 67.0906 458.171 67.0936 458.171 67.0966C454.672 75.6775 447.922 82.6901 439.227 87.7029C447.889 87.1992 455.818 84.7018 462.568 79.7191C462.107 86.9156 459.459 93.7171 454.428 99.4236C448.191 106.496 439.199 110.804 429.032 112.411C431.463 112.864 433.876 113.102 436.262 113.099C440.122 113.099 443.911 112.481 447.587 111.144C445.518 116.785 441.793 121.592 436.428 124.964C432.838 127.214 428.788 128.599 424.499 129.265C431.731 139.2 441.386 147.468 453.918 153.407C447.808 154.824 441.498 155.563 435.094 155.563" fill="#7DA6DD"/>
</g>
<defs>
<clipPath id="clip0_2_3">
<rect width="1508.07" height="1123.85" fill="white" transform="translate(0.124451 0.470001)"/>
</clipPath>
</defs>
</svg>
